<?xml version="1.0" encoding="UTF-8"?>
<svg width="60px" height="60px" viewBox="0 0 60 60" version="1.1" xmlns="http://www.w3.org/2000/svg" xmlns:xlink="http://www.w3.org/1999/xlink">
    <!-- Generator: Sketch 42 (36781) - http://www.bohemiancoding.com/sketch -->
    <title>ico/bags/black</title>
    <desc>Created with Sketch.</desc>
    <defs></defs>
    <g id="Symbols" stroke="none" stroke-width="1" fill="none" fill-rule="evenodd">
        <g id="ico/bags/black" fill="#000000">
            <path d="M45.6768,15.167 C45.4638,15.167 45.2458,15.191 45.0278,15.239 C44.0358,15.459 43.2218,16.274 43.0008,17.266 C42.7868,18.231 43.0548,19.174 43.7338,19.854 C44.4118,20.532 45.3578,20.799 46.3218,20.585 C47.3148,20.365 48.1278,19.551 48.3478,18.56 C48.5628,17.594 48.2948,16.65 47.6158,15.971 C47.0908,15.446 46.4068,15.167 45.6768,15.167 L45.6768,15.167 Z M45.6828,23.656 C44.1628,23.656 42.7028,23.066 41.6128,21.975 C40.2138,20.577 39.6388,18.574 40.0728,16.616 C40.5478,14.475 42.2388,12.785 44.3778,12.311 C46.3378,11.876 48.3398,12.453 49.7378,13.85 C51.1358,15.248 51.7108,17.251 51.2778,19.209 C50.8028,21.349 49.1128,23.039 46.9718,23.514 L46.9708,23.514 C46.5418,23.609 46.1098,23.656 45.6828,23.656 L45.6828,23.656 Z M37.2998,26.898 L53.7728,26.898 L53.7728,7.923 L48.5598,7.923 L48.5598,8.632 C48.5598,9.92 47.5118,10.968 46.2228,10.968 L44.8498,10.968 C43.5618,10.968 42.5138,9.92 42.5138,8.632 L42.5138,7.923 L37.2998,7.923 L37.2998,26.898 Z M54.4368,29.898 L36.6368,29.898 C35.3478,29.898 34.2998,28.85 34.2998,27.562 L34.2998,7.259 C34.2998,5.971 35.3478,4.923 36.6368,4.923 L43.1778,4.923 C44.4658,4.923 45.5138,5.971 45.5138,7.259 L45.5598,7.968 L45.5598,7.259 C45.5598,5.971 46.6078,4.923 47.8958,4.923 L54.4368,4.923 C55.7248,4.923 56.7728,5.971 56.7728,7.259 L56.7728,27.562 C56.7728,28.85 55.7248,29.898 54.4368,29.898 L54.4368,29.898 Z" id="Fill-1"></path>
            <path d="M16.6055,47.1641 L16.9295,48.6281 L16.6055,47.1641 C17.5975,46.9441 18.4115,46.1301 18.6305,45.1381 C18.8455,44.1721 18.5785,43.2281 17.8995,42.5501 C17.2205,41.8711 16.2795,41.6041 15.3115,41.8181 C14.3195,42.0381 13.5055,42.8521 13.2865,43.8431 C13.0715,44.8101 13.3385,45.7531 14.0175,46.4321 C14.6975,47.1121 15.6425,47.3781 16.6055,47.1641 L16.6055,47.1641 Z M15.9665,50.2351 C14.4475,50.2351 12.9875,49.6441 11.8965,48.5541 C10.4985,47.1561 9.9225,45.1521 10.3565,43.1941 C10.8315,41.0541 12.5215,39.3631 14.6635,38.8891 C16.6165,38.4551 18.6235,39.0311 20.0205,40.4281 C21.4185,41.8261 21.9945,43.8301 21.5605,45.7871 C21.0855,47.9281 19.3955,49.6181 17.2535,50.0931 C16.8255,50.1881 16.3935,50.2351 15.9665,50.2351 L15.9665,50.2351 Z M22.2575,54.5381 L27.0095,54.5381 L27.0095,34.6401 L22.2575,34.6401 L22.2575,35.5111 C22.2575,36.8111 21.1995,37.8701 19.8985,37.8701 L12.0185,37.8701 C10.7175,37.8701 9.6605,36.8111 9.6605,35.5111 L9.6605,34.6401 L5.0005,34.6401 L5.0005,54.5381 L9.6605,54.5381 L9.6605,53.6671 C9.6605,52.3661 10.7175,51.3081 12.0185,51.3081 L19.8985,51.3081 C21.1995,51.3081 22.2575,52.3661 22.2575,53.6671 L22.2575,54.5381 Z M27.6505,57.5381 L21.6165,57.5381 C20.3155,57.5381 19.2575,56.4791 19.2575,55.1791 L19.2575,54.3081 L12.6605,54.3081 L12.6605,55.1791 C12.6605,56.4791 11.6015,57.5381 10.3005,57.5381 L4.3595,57.5381 C3.0585,57.5381 2.0005,56.4791 2.0005,55.1791 L2.0005,33.9991 C2.0005,32.6981 3.0585,31.6401 4.3595,31.6401 L10.3005,31.6401 C11.6015,31.6401 12.6605,32.6981 12.6605,33.9991 L12.6605,34.8701 L19.2575,34.8701 L19.2575,33.9991 C19.2575,32.6981 20.3155,31.6401 21.6165,31.6401 L27.6505,31.6401 C28.9515,31.6401 30.0095,32.6981 30.0095,33.9991 L30.0095,55.1791 C30.0095,56.4791 28.9515,57.5381 27.6505,57.5381 L27.6505,57.5381 Z" id="Fill-3"></path>
            <path d="M45.6748,41.7456 C44.1608,41.7456 42.9298,42.9766 42.9298,44.4906 C42.9298,46.0046 44.1608,47.2366 45.6748,47.2366 C47.1888,47.2366 48.4198,46.0046 48.4198,44.4906 C48.4198,42.9766 47.1888,41.7456 45.6748,41.7456 M45.6748,50.2366 C42.5068,50.2366 39.9298,47.6586 39.9298,44.4906 C39.9298,41.3226 42.5068,38.7456 45.6748,38.7456 C48.8428,38.7456 51.4198,41.3226 51.4198,44.4906 C51.4198,47.6586 48.8428,50.2366 45.6748,50.2366 M37.2378,54.5376 L53.8338,54.5376 C54.0588,53.6316 54.8788,52.9576 55.8548,52.9576 L55.8588,52.9576 L55.8548,42.5766 C54.7058,42.5766 53.7728,41.6426 53.7728,40.4956 L53.7728,34.6396 L37.2998,34.6396 L37.2998,40.4956 C37.2998,41.5506 36.5108,42.4246 35.4908,42.5586 L35.4908,52.9756 C36.3438,53.0876 37.0348,53.7176 37.2378,54.5376 M54.6918,57.5376 L36.3818,57.5376 C35.4028,57.5376 34.5788,56.8586 34.3588,55.9466 C33.3108,55.8386 32.4908,54.9516 32.4908,53.8766 L32.4908,41.6576 C32.4908,40.6026 33.2798,39.7276 34.2998,39.5946 L34.2998,33.7216 C34.2998,32.5736 35.2338,31.6396 36.3818,31.6396 L54.6918,31.6396 C55.8388,31.6396 56.7728,32.5736 56.7728,33.7216 L56.7778,39.5766 C57.9248,39.5766 58.8588,40.5096 58.8588,41.6576 L58.8588,53.8766 C58.8588,55.0246 57.9248,55.9576 56.7778,55.9576 L56.7108,55.9576 C56.4868,56.8646 55.6658,57.5376 54.6918,57.5376" id="Fill-6"></path>
            <path d="M15.9609,15.167 C15.7479,15.167 15.5299,15.191 15.3119,15.239 C14.3189,15.459 13.5059,16.273 13.2859,17.265 C13.0709,18.231 13.3389,19.175 14.0179,19.854 C14.6959,20.532 15.6379,20.799 16.6059,20.585 C17.5979,20.365 18.4109,19.551 18.6309,18.56 C18.8459,17.593 18.5779,16.65 17.8989,15.971 C17.3739,15.446 16.6899,15.167 15.9609,15.167 L15.9609,15.167 Z M15.9659,23.656 C14.4469,23.656 12.9869,23.066 11.8969,21.975 C10.4979,20.577 9.9229,18.574 10.3569,16.616 C10.8309,14.476 12.5219,12.786 14.6619,12.311 C16.6159,11.876 18.6219,12.452 20.0209,13.85 C21.4189,15.248 21.9939,17.251 21.5609,19.209 C21.0859,21.349 19.3959,23.039 17.2549,23.514 L17.2539,23.514 C16.8249,23.609 16.3939,23.656 15.9659,23.656 L15.9659,23.656 Z M4.9999,27.036 L27.0099,27.036 L27.0099,10.645 L20.8399,10.645 L20.4309,9.794 C19.6039,8.071 17.9069,7 16.0049,7 C14.1019,7 12.4049,8.071 11.5779,9.794 L11.1689,10.645 L4.9999,10.645 L4.9999,27.036 Z M27.6739,30.036 L4.3359,30.036 C3.0479,30.036 1.9999,28.988 1.9999,27.7 L1.9999,9.981 C1.9999,8.693 3.0479,7.645 4.3359,7.645 L9.3489,7.645 C10.7919,5.404 13.3109,4 16.0049,4 C18.6989,4 21.2169,5.404 22.6599,7.645 L27.6739,7.645 C28.9619,7.645 30.0099,8.693 30.0099,9.981 L30.0099,27.7 C30.0099,28.988 28.9619,30.036 27.6739,30.036 L27.6739,30.036 Z" id="Fill-9"></path>
        </g>
    </g>
</svg>