<svg id="Layer_1" data-name="Layer 1" xmlns="http://www.w3.org/2000/svg" viewBox="0 0 56.69 56.69"><title>bomb</title><path d="M51,28.93A20.2,20.2,0,0,0,33.18,13.71L32.25,10A1.47,1.47,0,0,0,30.47,8.9l-3.57.89c-.81-3.28-2.83-5.67-5.55-6.46-3.36-1-7.25.63-10.67,4.4a1.42,1.42,0,0,0,2.1,1.9c2.67-2.94,5.5-4.25,7.78-3.58,1.72.5,3,2.13,3.59,4.42l-3.8,1a1.47,1.47,0,0,0-.9.67,1.45,1.45,0,0,0-.17,1.11l.93,3.73a20.22,20.22,0,0,0,.71,34.24A20.34,20.34,0,0,0,25.8,53.3a20,20,0,0,0,5.5.77,20.39,20.39,0,0,0,4.94-.61A20.23,20.23,0,0,0,51,28.93Zm-4.79,13.8A17.3,17.3,0,1,1,36.06,17.2,17.37,17.37,0,0,1,48.11,29.64,17.18,17.18,0,0,1,46.16,42.73ZM22.49,13.92l7.26-1.82.3,1.2-7.26,1.82Z"/><path d="M28.67,18.92a1.45,1.45,0,0,0-1.11-.16A15.56,15.56,0,0,0,16.26,37.6a1.47,1.47,0,0,0,1.42,1.11,1.49,1.49,0,0,0,.36,0,1.47,1.47,0,0,0,1.07-1.78,12.62,12.62,0,0,1,9.17-15.28,1.47,1.47,0,0,0,.4-2.68Z"/><path d="M9.11,8.05,8.62,6.56a.43.43,0,0,0-.54-.27L1.21,8.55a.43.43,0,0,0-.27.54l.49,1.49a.43.43,0,0,0,.4.29l.13,0L8.84,8.59A.43.43,0,0,0,9.11,8.05Z"/><path d="M8.09,11.16a.43.43,0,0,0-.6.07L4.1,15.56a.43.43,0,0,0,.07.6l1.24,1A.43.43,0,0,0,6,17L9.4,12.73a.43.43,0,0,0-.07-.6Z"/><path d="M11.59,21.07l1.64,0h0a.42.42,0,0,0,.42-.44l-.35-7.74a.43.43,0,0,0-.42-.41l-1.64,0a.43.43,0,0,0-.43.44l.35,7.74A.43.43,0,0,0,11.59,21.07Z"/></svg>