<?xml version="1.0" encoding="UTF-8"?>
<svg width="58px" height="60px" viewBox="0 0 58 60" version="1.1" xmlns="http://www.w3.org/2000/svg" xmlns:xlink="http://www.w3.org/1999/xlink">
    <!-- Generator: Sketch 42 (36781) - http://www.bohemiancoding.com/sketch -->
    <title>ico/cart</title>
    <desc>Created with Sketch.</desc>
    <defs></defs>
    <g id="Symbols" stroke="none" stroke-width="1" fill="none" fill-rule="evenodd">
        <g id="ico/cart" fill-rule="nonzero" fill="#000000">
            <g id="flaticon1485452290-svg">
                <g id="Capa_1">
                    <path d="M16.5253907,39.4705133 L50.85166,39.4705133 C54.7439338,39.4705133 57.9192097,36.4150719 57.9192097,32.669692 L57.9192097,18.7723614 L57.9192097,18.7230801 L57.9192097,18.6245175 C57.9192097,18.5998768 57.9192097,18.5752361 57.9064062,18.5505955 C57.9064062,18.5259548 57.8936026,18.4889938 57.8936026,18.4643532 C57.8936026,18.4397125 57.8807991,18.4150719 57.8807991,18.3904312 C57.8679956,18.3657906 57.8679956,18.3411499 57.8551921,18.3041889 C57.8423885,18.2795483 57.8423885,18.2549076 57.829585,18.2302669 C57.8167815,18.2056263 57.8167815,18.1809856 57.8039779,18.156345 C57.7911744,18.1317043 57.7783709,18.1070637 57.7655673,18.0701027 C57.7527638,18.045462 57.7399603,18.0208214 57.7271567,18.008501 C57.7143532,17.9838604 57.7015497,17.9592197 57.6887461,17.9345791 C57.6759426,17.9099384 57.6631391,17.8976181 57.6503355,17.8729774 C57.637532,17.8483368 57.6119249,17.8236961 57.5991214,17.7990554 C57.5863179,17.7744148 57.5735143,17.7620945 57.5479073,17.7374538 C57.5351038,17.7128131 57.5094967,17.7004928 57.4966932,17.6758522 C57.4838896,17.6512115 57.4582826,17.6388912 57.445479,17.6142505 C57.4326755,17.5896099 57.4070684,17.5772895 57.3942649,17.5649692 C57.3686578,17.5403285 57.3558543,17.5280082 57.3302472,17.5033676 C57.3046402,17.4910472 57.2918366,17.4664066 57.2662296,17.4540862 C57.2406225,17.4417659 57.2150155,17.4171253 57.1894084,17.4048049 C57.1638013,17.3924846 57.1509978,17.3801643 57.1253907,17.3678439 C57.0997837,17.3555236 57.0741766,17.3432033 57.0485695,17.3185626 C57.0229625,17.3062423 56.9973554,17.293922 56.9717483,17.2816016 C56.9461413,17.2692813 56.9205342,17.256961 56.8949272,17.2446407 C56.8693201,17.2323203 56.843713,17.22 56.818106,17.2076797 C56.7924989,17.1953593 56.7668918,17.1953593 56.7412848,17.183039 C56.7156777,17.1707187 56.6772671,17.1583984 56.65166,17.1583984 C56.626053,17.1583984 56.6004459,17.146078 56.5876424,17.146078 C56.5492318,17.1337577 56.5236247,17.1337577 56.4852141,17.1337577 C56.4724106,17.1337577 56.4596071,17.1214374 56.434,17.1214374 L12.9275982,11.3432033 L12.9275982,5.50336756 C12.9275982,5.44176591 12.9275982,5.38016427 12.9147947,5.33088296 C12.9147947,5.31856263 12.9147947,5.3062423 12.9019912,5.28160164 C12.9019912,5.24464066 12.8891876,5.20767967 12.8891876,5.17071869 C12.8763841,5.1337577 12.8763841,5.10911704 12.8635806,5.07215606 C12.8635806,5.0475154 12.850777,5.03519507 12.850777,5.01055441 C12.8379735,4.97359343 12.82517,4.93663244 12.8123664,4.89967146 C12.8123664,4.88735113 12.7995629,4.86271047 12.7995629,4.85039014 C12.7867594,4.81342916 12.7739558,4.7887885 12.7483488,4.75182752 C12.7355453,4.73950719 12.7355453,4.71486653 12.7227417,4.7025462 C12.7099382,4.67790554 12.6971347,4.65326489 12.6715276,4.62862423 C12.6587241,4.60398357 12.6459205,4.59166324 12.633117,4.56702259 C12.6203135,4.54238193 12.6075099,4.5300616 12.5947064,4.50542094 C12.5819029,4.48078029 12.5562958,4.45613963 12.5434923,4.43149897 C12.5306887,4.41917864 12.5178852,4.40685832 12.5050817,4.39453799 C12.4794746,4.36989733 12.4538675,4.34525667 12.4282605,4.32061602 C12.415457,4.30829569 12.4026534,4.29597536 12.3898499,4.28365503 C12.3642428,4.25901437 12.3386358,4.23437372 12.3002252,4.20973306 C12.2874216,4.19741273 12.2618146,4.1850924 12.249011,4.17277207 C12.223404,4.14813142 12.1977969,4.13581109 12.1721898,4.11117043 C12.1337792,4.08652977 12.0953687,4.06188912 12.0697616,4.04956879 C12.0569581,4.03724846 12.0441545,4.03724846 12.031351,4.02492813 C11.9801369,4.00028747 11.9161192,3.97564682 11.8649051,3.95100616 L2.42870199,0.131704312 C1.54525828,-0.225585216 0.533779249,0.168665298 0.162476821,1.01876797 C-0.208825607,1.86887064 0.200887417,2.84217659 1.08433113,3.19946612 L9.45784106,6.5998768 L9.45784106,14.1399179 L9.45784106,15.3349897 L9.45784106,24.5013142 L9.45784106,32.6943326 L9.45784106,43.0434086 C9.45784106,46.4931006 12.1465828,49.3514168 15.61634,49.7826283 C14.9889669,50.7928953 14.6176645,51.9756468 14.6176645,53.2323203 C14.6176645,56.9407392 17.7545298,59.9468994 21.5955894,59.9468994 C25.436649,59.9468994 28.5735143,56.9284189 28.5735143,53.2323203 C28.5735143,52.0002875 28.227819,50.8298563 27.6132494,49.84423 L43.1567373,49.84423 C42.5421678,50.8421766 42.1964724,52.0002875 42.1964724,53.2323203 C42.1964724,56.9407392 45.3333377,59.9468994 49.1743974,59.9468994 C53.015457,59.9468994 56.1523223,56.9284189 56.1523223,53.2323203 C56.1523223,49.5362218 53.015457,46.5177413 49.1743974,46.5177413 L16.5253907,46.5177413 C14.5280397,46.5177413 12.9147947,44.9530595 12.9147947,43.0434086 L12.9147947,38.5341684 C13.9646843,39.1255441 15.2066269,39.4705133 16.5253907,39.4705133 Z M25.1293642,53.22 C25.1293642,55.0926899 23.5417263,56.6080903 21.6083929,56.6080903 C19.6750596,56.6080903 18.0874216,55.0803696 18.0874216,53.22 C18.0874216,51.3596304 19.6750596,49.8319097 21.6083929,49.8319097 C23.5417263,49.8319097 25.1293642,51.3473101 25.1293642,53.22 Z M52.7081722,53.22 C52.7081722,55.0926899 51.1205342,56.6080903 49.1872009,56.6080903 C47.2538675,56.6080903 45.6662296,55.0803696 45.6662296,53.22 C45.6662296,51.3596304 47.2538675,49.8319097 49.1872009,49.8319097 C51.1205342,49.8319097 52.7081722,51.3473101 52.7081722,53.22 Z M50.85166,36.1440246 L16.5253907,36.1440246 C14.5280397,36.1440246 12.9147947,34.5793429 12.9147947,32.669692 L12.9147947,24.4766735 L12.9147947,15.3103491 L12.9147947,14.6943326 L54.4622561,20.2015195 L54.4622561,32.6573717 C54.4622561,34.5916632 52.8362075,36.1440246 50.85166,36.1440246 Z" id="Shape"></path>
                </g>
            </g>
        </g>
    </g>
</svg>