<?xml version="1.0" encoding="UTF-8"?>
<svg width="60px" height="60px" viewBox="0 0 60 60" version="1.1" xmlns="http://www.w3.org/2000/svg" xmlns:xlink="http://www.w3.org/1999/xlink">
    <!-- Generator: Sketch 42 (36781) - http://www.bohemiancoding.com/sketch -->
    <title>ico/check2/black</title>
    <desc>Created with Sketch.</desc>
    <defs></defs>
    <g id="Symbols" stroke="none" stroke-width="1" fill="none" fill-rule="evenodd">
        <g id="ico/check2/black" fill-rule="nonzero" fill="#000000">
            <path d="M57.3798207,4.40595 C54.6723185,2.94813379 51.6524122,5.75963648 49.8821224,7.42571214 C45.8210393,11.3826418 42.3845942,15.9643499 38.5314402,20.1295391 C34.2619175,24.7112472 30.3047989,29.2929552 25.9311416,33.7707037 C23.4319088,36.2698172 20.7244066,38.9771902 19.0582514,42.1010821 C15.3094023,38.4563714 12.0812266,34.4994417 7.91583863,31.2715902 C4.89593236,28.9807362 -0.102533196,27.3146605 0.00160150312,32.8335362 C0.209870901,40.0186576 6.56208755,47.7242576 11.248149,52.6181847 C13.2267083,54.7007793 15.8300758,56.8875036 18.849982,56.9916333 C22.4946965,57.1998928 26.2435457,52.8264442 28.4303744,50.4314604 C32.2835284,46.2662712 35.4075693,41.5802633 38.947979,37.3111145 C43.5299057,31.6881092 48.2159672,26.1690634 52.6937592,20.4419283 C55.5053961,16.9015175 64.3568455,8.1544501 57.3798207,4.40595 Z" id="Shape"></path>
        </g>
    </g>
</svg>