<?xml version="1.0" encoding="utf-8"?>
<!-- Generator: Adobe Illustrator 18.0.0, SVG Export Plug-In . SVG Version: 6.00 Build 0)  -->
<!DOCTYPE svg PUBLIC "-//W3C//DTD SVG 1.1//EN" "http://www.w3.org/Graphics/SVG/1.1/DTD/svg11.dtd">
<svg version="1.1" id="Layer_1" xmlns="http://www.w3.org/2000/svg" xmlns:xlink="http://www.w3.org/1999/xlink" x="0px" y="0px"
	 viewBox="0 0 56.7 56.7" enable-background="new 0 0 56.7 56.7" xml:space="preserve">
<g>
	<path d="M39.8,9.7l0.6-1.1c0.2-0.4,0.1-0.9-0.4-1.2l-1.1-0.6c-0.4-0.2-0.9-0.1-1.2,0.4l-0.6,1.1c-0.2,0.4-0.7,0.5-1.1,0.4
		c-1.7-0.7-3.6-1.1-5.5-1.4c-0.4,0-0.8-0.4-0.8-0.8V5.1c0-0.5,0.4-0.9,0.9-0.9h3.1c0.5,0,0.9-0.4,0.9-0.9V2.1c0-0.5-0.4-0.9-0.9-0.9
		H22.9c-0.5,0-0.9,0.4-0.9,0.9v1.3c0,0.5,0.4,0.9,0.9,0.9H26c0.5,0,0.9,0.4,0.9,0.9v1.4c0,0.4-0.3,0.8-0.8,0.8
		c-1.9,0.2-3.8,0.7-5.5,1.4c-0.4,0.2-0.9,0-1.1-0.4L19,7.2c-0.2-0.4-0.7-0.6-1.2-0.4l-1.1,0.6c-0.4,0.2-0.6,0.7-0.4,1.2l0.6,1.1
		c0.2,0.4,0.1,0.9-0.3,1.1C10.8,14.7,7,21.5,7.2,29.1c0.4,10.8,9.1,19.8,19.9,20.3c12.2,0.7,22.3-9.1,22.3-21.1
		c0-7.3-3.7-13.7-9.4-17.5C39.7,10.5,39.6,10.1,39.8,9.7z M30.2,46.4c-11.5,1.1-21-8.4-19.9-19.9C11.2,18,18,11.1,26.5,10.3
		c11.5-1.1,21,8.4,19.9,19.9C45.5,38.7,38.7,45.5,30.2,46.4z"/>
	<path d="M29,15.7h-1.3c-0.5,0-0.9,0.4-0.9,0.9V29c0,0.5,0.4,0.9,0.9,0.9h12.4c0.5,0,0.9-0.4,0.9-0.9v-1.3c0-0.5-0.4-0.9-0.9-0.9
		h-9.5c-0.5,0-0.9-0.4-0.9-0.9v-9.5C29.8,16,29.5,15.7,29,15.7z"/>
</g>
</svg>
