<svg id="Layer_1" data-name="Layer 1" xmlns="http://www.w3.org/2000/svg" viewBox="0 0 56.69 56.69"><title>euro</title><path d="M31.57,43.38a10.18,10.18,0,0,1-7.62-3.07h0a14.83,14.83,0,0,1-3.7-8.24H30.34a1.43,1.43,0,0,0,1.43-1.43h0a1.43,1.43,0,0,0-1.43-1.43H20c0-.41-.06-1.05-.06-1.91l.09-3H31.94a1.43,1.43,0,0,0,1.43-1.43h0a1.43,1.43,0,0,0-1.43-1.43H20.32c.72-3.87,2-6.87,3.89-8.92a9.43,9.43,0,0,1,7.26-3.16,13.91,13.91,0,0,1,5.65,1.23A1.42,1.42,0,0,0,39,9.89l.13-.29a1.45,1.45,0,0,0-.74-1.94,15.39,15.39,0,0,0-2.61-.87,19,19,0,0,0-4.29-.45,12.84,12.84,0,0,0-9.73,4.11c-2.5,2.65-4.12,6.35-4.83,11H13.48A1.43,1.43,0,0,0,12,22.88h0a1.43,1.43,0,0,0,1.43,1.43h3l-.09,2.31c0,1.07,0,1.94.07,2.59h-3A1.43,1.43,0,0,0,12,30.64h0a1.43,1.43,0,0,0,1.43,1.43h3.33c.76,4.58,2.38,8.13,4.8,10.56a13.37,13.37,0,0,0,9.86,3.77,21.17,21.17,0,0,0,3.74-.33,17.88,17.88,0,0,0,3-.82,1.45,1.45,0,0,0,.95-1.49v-.13a1.43,1.43,0,0,0-1.91-1.21A17,17,0,0,1,31.57,43.38Z"/></svg>