<?xml version="1.0" encoding="utf-8"?>
<!-- Generator: Adobe Illustrator 18.0.0, SVG Export Plug-In . SVG Version: 6.00 Build 0)  -->
<!DOCTYPE svg PUBLIC "-//W3C//DTD SVG 1.1//EN" "http://www.w3.org/Graphics/SVG/1.1/DTD/svg11.dtd">
<svg version="1.1" id="Layer_1" xmlns="http://www.w3.org/2000/svg" xmlns:xlink="http://www.w3.org/1999/xlink" x="0px" y="0px"
	 viewBox="0 0 56.7 56.7" enable-background="new 0 0 56.7 56.7" xml:space="preserve">
<path d="M42.2,10.7c-4.8-1.6-9.7-0.3-13,2.9c-0.5,0.5-1.3,0.5-1.8,0c-3.3-3.2-8.2-4.5-13-2.9c-3,1-5.6,3.2-7.1,6.1
	c-3.5,6.6-0.6,15,8.2,24.6c3.8,4.1,9.2,8.6,11.6,10.5c0.7,0.5,1.6,0.5,2.3,0c2.3-1.9,7.8-6.3,11.6-10.5c8.9-9.7,11.7-18,8.2-24.6
	C47.8,13.9,45.3,11.7,42.2,10.7z M38.9,39.3c-3.6,3.9-7.4,7.2-9.7,9c-0.5,0.4-1.1,0.4-1.6,0c-2.3-1.8-6.1-5.1-9.7-9
	C12,33,8.9,27.2,8.9,22.6c0-5.3,4.3-9.7,9.7-9.7c3.5,0,6.8,1.9,8.5,5l0.2,0.3c0.5,0.9,1.8,0.9,2.3,0l0.2-0.3c1.7-3.1,4.9-5,8.5-5
	c5.3,0,9.7,4.3,9.7,9.7C47.8,27.2,44.7,33,38.9,39.3z"/>
</svg>
