<?xml version="1.0" encoding="utf-8"?>
<!-- Generator: Adobe Illustrator 18.0.0, SVG Export Plug-In . SVG Version: 6.00 Build 0)  -->
<!DOCTYPE svg PUBLIC "-//W3C//DTD SVG 1.1//EN" "http://www.w3.org/Graphics/SVG/1.1/DTD/svg11.dtd">
<svg version="1.1" id="Layer_1" xmlns="http://www.w3.org/2000/svg" xmlns:xlink="http://www.w3.org/1999/xlink" x="0px" y="0px"
	 viewBox="0 0 56.7 56.7" enable-background="new 0 0 56.7 56.7" xml:space="preserve">
<g>
	<path d="M49.7,29.1c0.3,0,0.5-0.2,0.5-0.5c0-0.3-0.2-0.5-0.5-0.5H33.2c0.1-0.4,0.2-0.8,0.4-1.1h16.2c0.3,0,0.5-0.2,0.5-0.5
		c0-0.3-0.2-0.5-0.5-0.5H33.9c1.3-3.5,2.9-6.1,4.4-8c1.6-2,3.3-3.2,4.5-4c0.6-0.4,1.1-0.6,1.4-0.8c0.2-0.1,0.3-0.1,0.4-0.2l0.1,0
		l0,0l0,0c0.3-0.1,0.4-0.4,0.3-0.7c-0.1-0.3-0.4-0.4-0.7-0.3c-0.1,0-3.4,1.2-6.9,5.3c-1.7,2.1-3.4,4.9-4.8,8.7h-9.2
		c-1.3-3.8-3-6.6-4.8-8.7c-3.4-4.2-6.8-5.3-6.9-5.3c-0.3-0.1-0.6,0.1-0.7,0.3c-0.1,0.3,0.1,0.6,0.3,0.7l0,0c0.1,0,3.3,1.2,6.5,5.2
		c1.5,1.9,3.1,4.5,4.3,7.8H7c-0.3,0-0.5,0.2-0.5,0.5c0,0.3,0.2,0.5,0.5,0.5h15.8c0.1,0.4,0.2,0.8,0.4,1.1H7c-0.3,0-0.5,0.2-0.5,0.5
		c0,0.3,0.2,0.5,0.5,0.5h16.5c0.1,0.4,0.2,0.8,0.3,1.2H7c-0.3,0-0.5,0.2-0.5,0.5c0,0.3,0.2,0.5,0.5,0.5h17c0.1,0.4,0.2,0.8,0.2,1.2
		H7c-0.3,0-0.5,0.2-0.5,0.5c0,0.3,0.2,0.5,0.5,0.5h17.4c0.1,0.4,0.1,0.8,0.2,1.2H7c-0.3,0-0.5,0.2-0.5,0.5c0,0.3,0.2,0.5,0.5,0.5
		h17.6c0.1,1.3,0.2,2.8,0.3,4.2h-1.4c-0.2,0-0.4,0.1-0.5,0.4c-0.1,0.2,0,0.5,0.2,0.6l5,3.8c0.2,0.1,0.5,0.1,0.7,0l4.6-3.8
		c0.2-0.1,0.2-0.4,0.2-0.6c-0.1-0.2-0.3-0.3-0.5-0.3h-1.7c0-1.5,0.1-2.9,0.3-4.2h18c0.3,0,0.5-0.2,0.5-0.5c0-0.3-0.2-0.5-0.5-0.5
		H31.8c0.1-0.4,0.1-0.8,0.2-1.2h17.7c0.3,0,0.5-0.2,0.5-0.5c0-0.3-0.2-0.5-0.5-0.5H32.2c0.1-0.4,0.2-0.8,0.2-1.2h17.3
		c0.3,0,0.5-0.2,0.5-0.5c0-0.3-0.2-0.5-0.5-0.5H32.6c0.1-0.4,0.2-0.8,0.3-1.2H49.7z M23.9,26.9h3.7c0.1,0.2,0.3,0.4,0.5,0.4
		c0.2,0,0.4-0.2,0.5-0.4h0.8c0,0,0,0,0.1,0s0,0,0.1,0h3c-0.1,0.4-0.2,0.8-0.3,1.1H31c0-0.1,0.1-0.1,0.1-0.2c0-0.3-0.2-0.5-0.5-0.5
		c-0.3,0-0.5,0.2-0.5,0.5c0,0.1,0,0.2,0.1,0.2h-4.4c0.2-0.1,0.3-0.3,0.3-0.5c0-0.3-0.2-0.5-0.5-0.5c-0.3,0-0.5,0.2-0.5,0.5
		c0,0.2,0.1,0.4,0.3,0.5h-1C24.1,27.6,24,27.3,23.9,26.9z M30.4,40.6c0,0.2,0.1,0.3,0.2,0.4c0,0,0,0,0,0c0,0,0.1,0.1,0.1,0.1
		c0,0,0.1,0,0.1,0c0,0,0.1,0,0.1,0c0,0,0,0,0,0c0,0,0,0,0,0h0.8l-3.2,2.6l-3.4-2.6h0.4c0,0,0,0,0,0c0,0,0,0,0,0c0,0,0.1,0,0.1,0
		c0,0,0.1,0,0.1,0c0,0,0,0,0.1,0c0,0,0.1,0,0.1-0.1c0,0,0,0,0.1-0.1c0,0,0-0.1,0.1-0.1c0,0,0-0.1,0-0.1c0,0,0-0.1,0-0.1c0,0,0,0,0,0
		c0,0,0,0,0,0c0-1.7-0.1-3.3-0.3-4.8h5C30.5,37.3,30.4,38.9,30.4,40.6z M30.8,34.8h-5.2c0-0.4-0.1-0.8-0.2-1.2h5.5
		C30.9,34,30.8,34.4,30.8,34.8z M31.1,32.5h-4.2c0.1-0.1,0.1-0.2,0.1-0.3c0-0.3-0.2-0.5-0.5-0.5c-0.3,0-0.5,0.2-0.5,0.5
		c0,0.1,0.1,0.3,0.1,0.3h-0.9c-0.1-0.4-0.1-0.8-0.2-1.2h3.1c0.1,0.2,0.3,0.4,0.5,0.4c0.2,0,0.4-0.1,0.5-0.4h2.3
		C31.2,31.7,31.2,32.1,31.1,32.5z M31.5,30.3h-1.1c-0.1-0.2-0.3-0.4-0.5-0.4c-0.2,0-0.4,0.2-0.5,0.4h-1.9c0-0.1,0.1-0.1,0.1-0.2
		c0-0.3-0.2-0.5-0.5-0.5c-0.3,0-0.5,0.2-0.5,0.5c0,0.1,0,0.2,0.1,0.2h-1.8c-0.1-0.4-0.2-0.8-0.3-1.2h4.2c0,0.3,0.2,0.5,0.5,0.5
		c0.3,0,0.5-0.2,0.5-0.5h2C31.7,29.5,31.6,29.9,31.5,30.3z"/>
	<circle cx="25" cy="20.4" r="0.5"/>
	<circle cx="29.1" cy="18.3" r="0.5"/>
	<circle cx="27.8" cy="21.7" r="0.5"/>
	<circle cx="30.3" cy="21.9" r="0.5"/>
	<circle cx="31.6" cy="23.1" r="0.5"/>
	<circle cx="30.3" cy="19.8" r="0.5"/>
	<circle cx="27.1" cy="23.3" r="0.5"/>
	<circle cx="27.1" cy="17.8" r="0.5"/>
	<circle cx="26.4" cy="19.8" r="0.5"/>
	<circle cx="23.4" cy="18.3" r="0.5"/>
	<circle cx="24.6" cy="17.4" r="0.5"/>
	<circle cx="25" cy="18.9" r="0.5"/>
	<circle cx="25.3" cy="16.1" r="0.5"/>
	<circle cx="26" cy="14.6" r="0.5"/>
	<circle cx="28.6" cy="16.8" r="0.5"/>
	<circle cx="27.1" cy="16.1" r="0.5"/>
	<circle cx="34.4" cy="14" r="0.5"/>
	<circle cx="24.3" cy="23.6" r="0.5"/>
	<circle cx="33.7" cy="17.3" r="0.5"/>
	<circle cx="33.1" cy="14.8" r="0.5"/>
	<circle cx="32.4" cy="16.7" r="0.5"/>
	<circle cx="34.9" cy="18.3" r="0.5"/>
	<circle cx="34.9" cy="16.2" r="0.5"/>
	<circle cx="31.6" cy="19.7" r="0.5"/>
	<circle cx="32.1" cy="18.3" r="0.5"/>
	<circle cx="31.6" cy="15.3" r="0.5"/>
	<circle cx="30.9" cy="17.4" r="0.5"/>
	<circle cx="27.6" cy="13.7" r="0.5"/>
	<circle cx="29.8" cy="15.8" r="0.5"/>
	<circle cx="30.9" cy="13.5" r="0.5"/>
	<circle cx="23.9" cy="15.6" r="0.5"/>
	<circle cx="22.3" cy="16.3" r="0.5"/>
	<circle cx="19.6" cy="15.7" r="0.5"/>
	<circle cx="20.2" cy="17.2" r="0.5"/>
	<circle cx="20.4" cy="14.5" r="0.5"/>
	<circle cx="29.3" cy="14.6" r="0.5"/>
	<circle cx="24.2" cy="14.3" r="0.5"/>
	<circle cx="22.2" cy="14.8" r="0.5"/>
	<circle cx="28.6" cy="12.4" r="0.5"/>
	<circle cx="23" cy="13.5" r="0.5"/>
	<circle cx="25.8" cy="12.9" r="0.5"/>
	<circle cx="23.8" cy="21.7" r="0.5"/>
	<circle cx="28" cy="19.4" r="0.5"/>
	<circle cx="26.6" cy="21.5" r="0.5"/>
	<circle cx="29.3" cy="23.3" r="0.5"/>
	<circle cx="30.3" cy="24.8" r="0.5"/>
	<circle cx="31.9" cy="24.8" r="0.5"/>
	<circle cx="29.1" cy="21" r="0.5"/>
	<circle cx="25.8" cy="24.5" r="0.5"/>
	<circle cx="32.7" cy="21.7" r="0.5"/>
	<circle cx="33.8" cy="19.4" r="0.5"/>
	<circle cx="25.1" cy="22.2" r="0.5"/>
	<circle cx="21.8" cy="18.5" r="0.5"/>
	<circle cx="22.8" cy="19.9" r="0.5"/>
	<circle cx="28.2" cy="24.5" r="0.5"/>
</g>
</svg>
