<?xml version="1.0" encoding="utf-8"?>
<!-- Generator: Adobe Illustrator 18.0.0, SVG Export Plug-In . SVG Version: 6.00 Build 0)  -->
<!DOCTYPE svg PUBLIC "-//W3C//DTD SVG 1.1//EN" "http://www.w3.org/Graphics/SVG/1.1/DTD/svg11.dtd">
<svg version="1.1" id="Layer_1" xmlns="http://www.w3.org/2000/svg" xmlns:xlink="http://www.w3.org/1999/xlink" x="0px" y="0px"
	 viewBox="0 0 56.7 56.7" enable-background="new 0 0 56.7 56.7" xml:space="preserve">
<g>
	<path d="M43.3,11.9c-0.2-0.2-0.5-0.3-0.7-0.3H14.1c-0.3,0-0.5,0.1-0.7,0.3c-0.2,0.2-0.3,0.5-0.3,0.7v31.5c0,0.3,0.1,0.5,0.3,0.7
		c0.2,0.2,0.5,0.3,0.7,0.3h28.5c0.3,0,0.5-0.1,0.7-0.3c0.2-0.2,0.3-0.5,0.3-0.7V12.6C43.6,12.3,43.5,12.1,43.3,11.9z M42.6,44.1
		C42.6,44.1,42.6,44.1,42.6,44.1l-28.5,0l0-31.5l28.5,0L42.6,44.1z"/>
	<path d="M16,18.2c0.3,0,0.5-0.2,0.5-0.5v-1.8l3,3.3c0.2,0.2,0.5,0.2,0.7,0c0.2-0.2,0.2-0.5,0-0.7L17.2,15h2.1
		c0.3,0,0.5-0.2,0.5-0.5c0-0.3-0.2-0.5-0.5-0.5H16c0,0,0,0-0.1,0c0,0-0.1,0-0.1,0c0,0-0.1,0-0.1,0.1c0,0-0.1,0-0.1,0c0,0,0,0,0,0
		c0,0,0,0,0,0c0,0,0,0.1,0,0.1c0,0,0,0.1-0.1,0.1c0,0,0,0.1,0,0.1c0,0,0,0.1,0,0.1c0,0,0,0,0,0v3.2C15.5,18,15.7,18.2,16,18.2z"/>
	<path d="M15.5,42.3C15.5,42.3,15.5,42.4,15.5,42.3c0,0.1,0.1,0.1,0.1,0.2c0,0,0,0.1,0.1,0.1c0,0,0,0,0,0c0,0,0,0,0,0
		c0,0,0.1,0,0.1,0c0,0,0.1,0,0.1,0.1c0,0,0.1,0,0.1,0c0,0,0,0,0.1,0h3.3c0.3,0,0.5-0.2,0.5-0.5s-0.2-0.5-0.5-0.5h-2.1l3.3-3.7
		c0.2-0.2,0.2-0.6,0-0.7c-0.2-0.2-0.6-0.2-0.7,0l-3.2,3.6v-1.8c0-0.3-0.2-0.5-0.5-0.5s-0.5,0.2-0.5,0.5v3.2c0,0,0,0,0,0
		C15.5,42.2,15.5,42.3,15.5,42.3z"/>
	<path d="M39.5,41.6h-2.1c-0.3,0-0.5,0.2-0.5,0.5s0.2,0.5,0.5,0.5h3.3c0,0,0,0,0.1,0c0,0,0.1,0,0.1,0c0,0,0.1,0,0.1-0.1
		c0,0,0,0,0.1,0c0,0,0,0,0,0c0,0,0,0,0,0c0,0,0-0.1,0.1-0.1c0,0,0-0.1,0.1-0.1c0,0,0-0.1,0-0.1c0,0,0-0.1,0-0.1c0,0,0,0,0,0v-3.2
		c0-0.3-0.2-0.5-0.5-0.5s-0.5,0.2-0.5,0.5v1.8L37,37.2c-0.2-0.2-0.5-0.2-0.7,0c-0.2,0.2-0.2,0.5,0,0.7L39.5,41.6z"/>
	<path d="M22.6,29.8h11.5c0.5,0,1-0.4,1-1v-9c0-0.5-0.5-1-1-1H22.6c-0.5,0-1,0.4-1,1v9C21.6,29.4,22,29.8,22.6,29.8z M28.3,20.2
		c1.9,0,3.4,1.5,3.4,3.4c0,1.9-1.5,3.4-3.4,3.4c-1.9,0-3.4-1.5-3.4-3.4C25,21.7,26.5,20.2,28.3,20.2z"/>
	<path d="M37.2,19.2l3-3.3v1.8c0,0.3,0.2,0.5,0.5,0.5s0.5-0.2,0.5-0.5v-3.2c0,0,0,0,0,0c0,0,0-0.1,0-0.1c0,0,0-0.1,0-0.1
		c0,0,0-0.1-0.1-0.1c0,0,0-0.1-0.1-0.1c0,0,0,0,0,0c0,0,0,0,0,0c0,0,0,0-0.1,0c0,0-0.1,0-0.1-0.1c0,0-0.1,0-0.1,0c0,0,0,0-0.1,0
		h-3.3c-0.3,0-0.5,0.2-0.5,0.5c0,0.3,0.2,0.5,0.5,0.5h2.1l-3.1,3.5c-0.2,0.2-0.2,0.6,0,0.7C36.7,19.4,37,19.4,37.2,19.2z"/>
</g>
</svg>
