<?xml version="1.0" encoding="utf-8"?>
<!-- Generator: Adobe Illustrator 18.0.0, SVG Export Plug-In . SVG Version: 6.00 Build 0)  -->
<!DOCTYPE svg PUBLIC "-//W3C//DTD SVG 1.1//EN" "http://www.w3.org/Graphics/SVG/1.1/DTD/svg11.dtd">
<svg version="1.1" id="Layer_1" xmlns="http://www.w3.org/2000/svg" xmlns:xlink="http://www.w3.org/1999/xlink" x="0px" y="0px"
	 viewBox="0 0 56.7 56.7" enable-background="new 0 0 56.7 56.7" xml:space="preserve">
<g>
	<path d="M4.4,35.9c0.1,0,0.2,0,0.2,0c0.3,0,0.6-0.2,0.7-0.5l8.4-24.7c0.5-1.5,2.2-2.3,3.7-1.8L48,19.5c0.4,0.1,0.8-0.1,0.9-0.4
		c0.1-0.4-0.1-0.8-0.4-0.9L17.8,7.7c-2.2-0.8-4.7,0.4-5.4,2.7L4,35C3.8,35.4,4,35.8,4.4,35.9z"/>
	<path d="M9.8,40.5l-2.4-0.8c-0.4-0.1-0.8,0.1-0.9,0.4S6.6,40.8,7,41l2.4,0.8c0.3,0.1,0.5,0.5,0.4,0.8l-1.6,4.8
		c-0.1,0.2-0.2,0.3-0.3,0.4c-0.1,0.1-0.3,0.1-0.5,0L4.9,47c-0.4-0.1-0.8,0.1-0.9,0.4c-0.1,0.4,0.1,0.8,0.4,0.9l2.4,0.8
		c0.2,0.1,0.4,0.1,0.6,0.1c0.3,0,0.6-0.1,0.9-0.2c0.5-0.2,0.8-0.7,1-1.2l1.6-4.8C11.4,42,10.9,40.8,9.8,40.5z"/>
	<path d="M13.2,30.5l-2.4-0.8c-0.4-0.1-0.8,0.1-0.9,0.4s0.1,0.8,0.4,0.9l2.4,0.8c0.3,0.1,0.5,0.5,0.4,0.8l-1.6,4.8
		c-0.1,0.2-0.2,0.3-0.3,0.4c-0.1,0.1-0.3,0.1-0.5,0L8.3,37c-0.4-0.1-0.8,0.1-0.9,0.4c-0.1,0.4,0.1,0.8,0.4,0.9l2.4,0.8
		c0.2,0.1,0.4,0.1,0.6,0.1c0.3,0,0.6-0.1,0.9-0.2c0.5-0.2,0.8-0.7,1-1.2l1.6-4.8C14.8,32,14.3,30.9,13.2,30.5z"/>
	<path d="M16.7,20.5l-2.4-0.8c-0.4-0.1-0.8,0.1-0.9,0.4c-0.1,0.4,0.1,0.8,0.4,0.9l2.4,0.8c0.3,0.1,0.5,0.5,0.4,0.8l-1.6,4.8
		c-0.1,0.2-0.2,0.3-0.3,0.4c-0.1,0.1-0.3,0.1-0.5,0L11.7,27c-0.4-0.1-0.8,0.1-0.9,0.4c-0.1,0.4,0.1,0.8,0.4,0.9l2.4,0.8
		c0.2,0.1,0.4,0.1,0.6,0.1c0.3,0,0.6-0.1,0.9-0.2c0.5-0.2,0.8-0.7,1-1.2l1.6-4.8C18.3,22,17.7,20.9,16.7,20.5z"/>
	<path d="M22.4,13.5c-0.4-0.1-0.8,0.1-0.9,0.4l-0.8,2.4c-0.1,0.3-0.4,0.5-0.8,0.4l-0.5-0.2c-0.4-0.1-0.8,0.1-0.9,0.4l-0.2,0.5
		c-0.1,0.2-0.2,0.3-0.3,0.3c-0.1,0.1-0.3,0.1-0.5,0l-2.4-0.8c-0.4-0.1-0.8,0.1-0.9,0.4c-0.1,0.4,0.1,0.8,0.4,0.9l2.4,0.8
		c0.2,0.1,0.4,0.1,0.6,0.1c0.3,0,0.6-0.1,0.9-0.2c0.4-0.2,0.8-0.6,1-1c1,0.3,2.1-0.3,2.4-1.3l0.8-2.4C22.9,14,22.7,13.6,22.4,13.5z"
		/>
	<path d="M25.4,15.3c0.1-0.4-0.1-0.8-0.4-0.9c-0.4-0.1-0.8,0.1-0.9,0.4l-0.8,2.4c-0.4,1,0.2,2.2,1.3,2.6l4.8,1.6
		c0.2,0.1,0.4,0.1,0.7,0.1c0.3,0,0.6-0.1,0.9-0.2c0.5-0.2,0.9-0.6,1-1.2l0.8-2.4c0.1-0.4-0.1-0.8-0.4-0.9c-0.4-0.1-0.8,0.1-0.9,0.4
		l-0.8,2.4c-0.1,0.1-0.2,0.3-0.3,0.3c-0.2,0.1-0.3,0.1-0.5,0L25,18.5c-0.3-0.1-0.5-0.5-0.4-0.8L25.4,15.3z"/>
	<path d="M42.3,20.3c-0.4-0.1-0.8,0.1-0.9,0.4l-0.8,2.4c-0.1,0.3-0.5,0.5-0.8,0.4L35,21.9c-0.2-0.1-0.3-0.2-0.4-0.3
		c-0.1-0.1-0.1-0.3,0-0.5l0.8-2.4c0.1-0.4-0.1-0.8-0.4-0.9c-0.4-0.1-0.8,0.1-0.9,0.4l-0.8,2.4c-0.2,0.5-0.1,1.1,0.1,1.5
		c0.2,0.5,0.7,0.8,1.2,1l4.8,1.6c0.2,0.1,0.4,0.1,0.7,0.1c0.8,0,1.6-0.5,1.9-1.3l0.8-2.4C42.9,20.8,42.7,20.4,42.3,20.3z"/>
	<path d="M52.3,23.7c-0.4-0.1-0.8,0.1-0.9,0.4l-0.8,2.4c0,0.1-0.2,0.3-0.3,0.3c-0.2,0.1-0.3,0.1-0.5,0L45,25.3
		c-0.3-0.1-0.5-0.5-0.4-0.8l0.8-2.4c0.1-0.4-0.1-0.8-0.4-0.9c-0.4-0.1-0.8,0.1-0.9,0.4l-0.8,2.4c-0.4,1,0.2,2.2,1.3,2.6l4.8,1.6
		c0.2,0.1,0.4,0.1,0.7,0.1c0.3,0,0.6-0.1,0.9-0.2c0.5-0.2,0.8-0.6,1-1.1l0.8-2.4C52.9,24.3,52.7,23.9,52.3,23.7z"/>
	<path d="M26.4,28.4c-0.2-0.3-0.6-0.5-1-0.3c-0.3,0.2-0.5,0.6-0.3,1l7.4,12.8c0.1,0.2,0.4,0.4,0.6,0.4c0.1,0,0.2,0,0.3-0.1
		c0.3-0.2,0.5-0.6,0.3-1L26.4,28.4z"/>
	<path d="M23.6,30.8c-0.4,0.1-0.6,0.5-0.5,0.9c0,0.1,1.8,5.9,0.9,10.4c-0.1,0.4,0.2,0.7,0.5,0.8c0,0,0.1,0,0.1,0
		c0.3,0,0.6-0.2,0.7-0.6c1-4.8-0.9-10.8-1-11.1C24.4,30.9,24,30.7,23.6,30.8z"/>
	<path d="M40.2,37.3c-4.7-1.7-10.1-8.6-10.2-8.7c-0.2-0.3-0.7-0.4-1-0.1c-0.3,0.2-0.4,0.7-0.1,1c0.2,0.3,5.7,7.3,10.8,9.2
		c0.1,0,0.2,0,0.2,0c0.3,0,0.6-0.2,0.7-0.5C40.8,37.9,40.6,37.5,40.2,37.3z"/>
</g>
</svg>
