<?xml version="1.0" encoding="utf-8"?>
<!-- Generator: Adobe Illustrator 18.0.0, SVG Export Plug-In . SVG Version: 6.00 Build 0)  -->
<!DOCTYPE svg PUBLIC "-//W3C//DTD SVG 1.1//EN" "http://www.w3.org/Graphics/SVG/1.1/DTD/svg11.dtd">
<svg version="1.1" id="Layer_1" xmlns="http://www.w3.org/2000/svg" xmlns:xlink="http://www.w3.org/1999/xlink" x="0px" y="0px"
	 viewBox="0 0 56.7 56.7" enable-background="new 0 0 56.7 56.7" xml:space="preserve">
<path d="M25.1,18.1C25.1,18.1,25.1,18.1,25.1,18.1l-0.5-1.5c0-0.1-0.1-0.1-0.2,0L24,18c0,0,0,0-0.1,0.1l-1.4,0.4
	c-0.1,0-0.1,0.1,0,0.2l1.4,0.4c0,0,0,0,0.1,0.1l0.4,1.4c0,0.1,0.1,0.1,0.2,0l0.4-1.4c0,0,0,0,0.1-0.1l1.4-0.4c0.1,0,0.1-0.1,0-0.2
	L25.1,18.1z"/>
<path d="M31.5,16.9l0.2,0.8c0,0,0.1,0,0.1,0l0.2-0.8c0,0,0,0,0,0l0.8-0.2c0,0,0-0.1,0-0.1l-0.8-0.2c0,0,0,0,0,0l-0.2-0.8
	c0,0-0.1,0-0.1,0l-0.2,0.8c0,0,0,0,0,0l-0.8,0.2c0,0,0,0.1,0,0.1L31.5,16.9C31.5,16.8,31.5,16.8,31.5,16.9z"/>
<path d="M29.2,21l-0.7-2.3c0-0.1-0.2-0.1-0.2,0L27.5,21c0,0,0,0.1-0.1,0.1l-2.3,0.7c-0.1,0-0.1,0.2,0,0.2l2.3,0.7c0,0,0.1,0,0.1,0.1
	l0.7,2.3c0,0.1,0.2,0.1,0.2,0l0.7-2.3c0,0,0-0.1,0.1-0.1l2.3-0.7c0.1,0,0.1-0.2,0-0.2L29.2,21C29.2,21.1,29.2,21.1,29.2,21z"/>
<path d="M10.1,33.9l-1.3,0.4c-0.1,0-0.1,0.1,0,0.1l1.3,0.4c0,0,0,0,0,0l0.4,1.3c0,0.1,0.1,0.1,0.1,0l0.4-1.3c0,0,0,0,0,0l1.3-0.4
	c0.1,0,0.1-0.1,0-0.1l-1.3-0.4c0,0,0,0,0,0l-0.4-1.3c0-0.1-0.1-0.1-0.1,0L10.1,33.9C10.1,33.9,10.1,33.9,10.1,33.9z"/>
<path d="M50.3,23.6c-0.4-0.8-1.4-1-2.2-0.4l-7.7,8V16.7c0-3-2.4-5.4-5.4-5.4H6c-0.3,0-0.5,0.2-0.5,0.5s0.2,0.5,0.5,0.5h29
	c2.5,0,4.4,2,4.4,4.4v15.5l-7.7,7.9L23.3,35l-0.1,0c-0.7-0.2-1.4,0.1-1.7,0.7c-0.2,0.5-0.2,1,0.1,1.5l3.8,5H6
	c-0.3,0-0.5,0.2-0.5,0.5s0.2,0.5,0.5,0.5h20.2l5.3,7c0.3,0.4,0.7,0.6,1.1,0.6c0.5,0,0.9-0.2,1.2-0.6l16.5-25
	C50.5,24.6,50.6,24.1,50.3,23.6z M49.4,24.5l-16.5,25c-0.1,0.2-0.3,0.2-0.3,0.2c-0.1,0-0.2,0-0.3-0.2l-9.8-13
	c-0.1-0.2-0.1-0.3,0-0.4c0.1-0.1,0.2-0.2,0.3-0.2c0,0,0.1,0,0.1,0l9.1,5.5L48.8,24c0.2-0.2,0.5-0.1,0.6,0.1
	C49.5,24.2,49.5,24.3,49.4,24.5z"/>
<path d="M16.6,18.2c-3.4,0-6.1,2.7-6.1,6.1s2.7,6.1,6.1,6.1c3.4,0,6-2.7,6-6.1S20,18.2,16.6,18.2z"/>
</svg>
