<?xml version="1.0" encoding="utf-8"?>
<!-- Generator: Adobe Illustrator 18.0.0, SVG Export Plug-In . SVG Version: 6.00 Build 0)  -->
<!DOCTYPE svg PUBLIC "-//W3C//DTD SVG 1.1//EN" "http://www.w3.org/Graphics/SVG/1.1/DTD/svg11.dtd">
<svg version="1.1" id="Layer_1" xmlns="http://www.w3.org/2000/svg" xmlns:xlink="http://www.w3.org/1999/xlink" x="0px" y="0px"
	 viewBox="0 0 56.7 56.7" enable-background="new 0 0 56.7 56.7" xml:space="preserve">
<g>
	<path d="M50.3,28.9h-3.5c-1-2.2-2.7-4.3-4.7-5.9c0-2.5-0.2-4.4-0.5-5.7c-0.5-2.1-1.4-3.2-2.8-3.2c-1.5,0-4.6,1.9-7.1,4.6
		c-1.1-0.2-2.2-0.2-3.3-0.2c-5.2,0-10.2,1.7-13.9,4.7C11.1,26,9,29.6,8.6,33.5C7.1,33,6,31.5,6,29.8c0-0.7-0.6-1.3-1.3-1.3
		s-1.3,0.6-1.3,1.3c0,3.1,2.2,5.7,5.1,6.2c0.3,4,2.5,7.9,6,10.7l-1.1,6.2c-0.1,0.3,0,0.7,0.2,0.9c0.2,0.3,0.5,0.5,0.8,0.5l4.8,0.8
		c0.3,0.1,0.7,0,0.9-0.2s0.5-0.5,0.5-0.8l0.7-3.9c2.2,0.7,4.5,1,6.9,1c2.4,0,4.7-0.3,6.9-1l0.7,3.9c0.1,0.3,0.2,0.6,0.5,0.8
		c0.2,0.2,0.5,0.2,0.7,0.2c0.1,0,0.1,0,0.2,0l4.8-0.8c0.7-0.1,1.2-0.8,1-1.5l-1.1-6.2c2.1-1.7,3.7-3.7,4.7-5.9h3.5
		c1.6,0,2.9-1.3,2.9-2.9v-6.1C53.2,30.3,51.9,28.9,50.3,28.9z M50.3,38.3H46c-0.5,0-1,0.3-1.2,0.8c-0.9,2.3-2.6,4.4-4.8,6.1
		c-0.4,0.3-0.6,0.8-0.5,1.2l1,5.7l-2.3,0.4l-0.7-4.1c-0.1-0.4-0.3-0.7-0.6-0.9c-0.3-0.2-0.7-0.2-1.1-0.1c-2.3,0.9-4.9,1.4-7.5,1.4
		c-2.6,0-5.1-0.5-7.5-1.4c-0.4-0.1-0.8-0.1-1.1,0.1c-0.3,0.2-0.6,0.5-0.6,0.9l-0.7,4.1l-2.3-0.4l1-5.7c0.1-0.5-0.1-1-0.5-1.2
		c-3.6-2.6-5.6-6.4-5.6-10.3c0-7.7,7.7-13.9,17.3-13.9c1.2,0,2.4,0.1,3.6,0.3c0.5,0.1,0.9-0.1,1.2-0.4c2-2.5,4.6-4,5.5-4.2
		c0.2,0.3,0.9,1.7,0.9,7c0,0.4,0.2,0.8,0.5,1c2.2,1.6,3.8,3.7,4.7,6c0.2,0.5,0.7,0.8,1.2,0.8h4.3c0.2,0,0.4,0.2,0.4,0.4v0.6h-0.1
		c-0.7,0-1.3,0.6-1.3,1.3c0,0.7,0.6,1.3,1.3,1.3h0.1v3C50.7,38.2,50.5,38.3,50.3,38.3z"/>
	<path d="M28.4,15c3.7,0,6.8-3,6.8-6.8s-3-6.8-6.8-6.8s-6.8,3-6.8,6.8S24.6,15,28.4,15z M28.4,4c2.3,0,4.3,1.9,4.3,4.3
		s-1.9,4.3-4.3,4.3s-4.3-1.9-4.3-4.3S26,4,28.4,4z"/>
	<path d="M33.3,24c-1.6-0.5-3.3-0.8-5-0.8c-1.7,0-3.4,0.3-5,0.8c-0.7,0.2-1,0.9-0.8,1.6c0.2,0.7,0.9,1,1.6,0.8
		c1.3-0.4,2.8-0.6,4.2-0.6c1.4,0,2.9,0.2,4.2,0.6c0.1,0,0.3,0.1,0.4,0.1c0.5,0,1-0.3,1.2-0.9C34.4,24.9,34,24.2,33.3,24z"/>
</g>
</svg>
