<?xml version="1.0" encoding="UTF-8"?>
<svg width="60px" height="60px" viewBox="0 0 60 60" version="1.1" xmlns="http://www.w3.org/2000/svg" xmlns:xlink="http://www.w3.org/1999/xlink">
    <defs></defs>
    <g id="Symbols" stroke="none" stroke-width="1" fill="none" fill-rule="evenodd">
        <g id="ico/plus" fill="#000000">
            <path d="M32,28 L32,5.99876896 C32,5.44752574 31.5480902,5 30.9906311,5 L29.0093689,5 C28.4433532,5 28,5.44716409 28,5.99876896 L28,28 L5.99876896,28 C5.44752574,28 5,28.4519098 5,29.0093689 L5,30.9906311 C5,31.5566468 5.44716409,32 5.99876896,32 L28,32 L28,54.001231 C28,54.5524743 28.4519098,55 29.0093689,55 L30.9906311,55 C31.5566468,55 32,54.5528359 32,54.001231 L32,32 L54.001231,32 C54.5524743,32 55,31.5480902 55,30.9906311 L55,29.0093689 C55,28.4433532 54.5528359,28 54.001231,28 L32,28 Z" id="Combined-Shape"></path>
        </g>
    </g>
</svg>