<?xml version="1.0" encoding="utf-8"?>
<!-- Generator: Adobe Illustrator 18.0.0, SVG Export Plug-In . SVG Version: 6.00 Build 0)  -->
<!DOCTYPE svg PUBLIC "-//W3C//DTD SVG 1.1//EN" "http://www.w3.org/Graphics/SVG/1.1/DTD/svg11.dtd">
<svg version="1.1" id="Layer_1" xmlns="http://www.w3.org/2000/svg" xmlns:xlink="http://www.w3.org/1999/xlink" x="0px" y="0px"
	 viewBox="0 0 56.7 56.7" enable-background="new 0 0 56.7 56.7" xml:space="preserve">
<g>
	<g>
		<path d="M54.2,20c-1.5-1.7-3.7-2.6-6.1-2.6h-5.8v-3.2c0-0.8-0.6-1.4-1.4-1.4H13c-0.8,0-1.4,0.6-1.4,1.4v4.8H6.2
			c-0.8,0-1.4,0.6-1.4,1.4c0,0.8,0.6,1.4,1.4,1.4H13c0,0,0,0,0,0c0,0,0,0,0,0c0.8,0,1.4-0.6,1.4-1.4v-4.8h25v3.2v18.7H26.4
			c-0.1,0-0.1,0-0.2,0c-0.7-1.7-2.4-2.9-4.3-2.9c-2,0-3.7,1.2-4.3,3c-0.1,0-0.2,0-0.3,0h-2.7v-4.9c0-0.8-0.6-1.4-1.4-1.4
			c0,0,0,0-0.1,0s0,0-0.1,0H6.2c-0.8,0-1.4,0.6-1.4,1.4c0,0.8,0.6,1.4,1.4,1.4h5.4v4.8c0,0.8,0.6,1.4,1.4,1.4h4.1c0,0,0.1,0,0.1,0
			c0.5,2.1,2.3,3.6,4.6,3.6s4.1-1.6,4.6-3.6h14.5h2.2c0.5,2.1,2.3,3.6,4.6,3.6c2.2,0,4.1-1.6,4.6-3.6h3.1c0.8,0,1.4-0.6,1.4-1.4
			V27.3C56.7,24.3,55.8,21.7,54.2,20z M21.8,41.1c-1,0-1.9-0.8-1.9-1.9c0-1,0.8-1.9,1.9-1.9c1,0,1.9,0.8,1.9,1.9
			S22.9,41.1,21.8,41.1z M47.6,41.1c-1,0-1.9-0.8-1.9-1.9c0-1,0.8-1.9,1.9-1.9s1.9,0.8,1.9,1.9C49.5,40.2,48.7,41.1,47.6,41.1z
			 M53.9,37.4H52c-0.7-1.7-2.4-2.9-4.3-2.9s-3.6,1.2-4.3,2.9h-1.1V20.2h5.8c3.7,0,5.8,2.7,5.8,7.1V37.4z"/>
	</g>
</g>
<g>
	<path d="M24.6,32.1l-4.3-4.3c-0.6-0.6-0.6-1.5,0-2.1c0.6-0.6,1.5-0.6,2.1,0l2.2,2.2l9-9c0.6-0.6,1.5-0.6,2.1,0
		c0.6,0.6,0.6,1.5,0,2.1L24.6,32.1z"/>
</g>
<g>
	<path d="M16.3,28.3H1.6c-0.8,0-1.5-0.7-1.5-1.5s0.7-1.5,1.5-1.5h14.7c0.8,0,1.5,0.7,1.5,1.5S17.1,28.3,16.3,28.3z"/>
</g>
</svg>
