<?xml version="1.0" encoding="UTF-8"?>
<svg width="60px" height="60px" viewBox="0 0 60 60" version="1.1" xmlns="http://www.w3.org/2000/svg" xmlns:xlink="http://www.w3.org/1999/xlink">
    <!-- Generator: Sketch 42 (36781) - http://www.bohemiancoding.com/sketch -->
    <title>ico/user</title>
    <desc>Created with Sketch.</desc>
    <defs></defs>
    <g id="Symbols" stroke="none" stroke-width="1" fill="none" fill-rule="evenodd">
        <g id="ico/user" fill-rule="nonzero" fill="#000000">
            <g id="flaticon1485452306-svg">
                <g id="Capa_1">
                    <g id="Group">
                        <path d="M29.7372263,32.3229814 L29.9708029,32.3229814 L30.0583942,32.3229814 L30.2043796,32.3229814 C34.4817518,32.2608696 37.9416058,30.9813665 40.4963504,28.5341615 C46.1167883,23.1428571 45.1824818,13.9006211 45.080292,13.0186335 C44.7153285,6.39751553 41.0364964,3.22981366 38,1.7515528 C35.7372263,0.645962733 33.0948905,0.049689441 30.1459854,0 L30.0437956,0 L29.9854015,0 L29.8978102,0 C28.2773723,0 25.0948905,0.223602484 22.0437956,1.70186335 C18.9781022,3.18012422 15.2408759,6.34782609 14.8759124,13.0186335 C14.7737226,13.9006211 13.8394161,23.1428571 19.459854,28.5341615 C22,30.9813665 25.459854,32.2608696 29.7372263,32.3229814 Z M18.7737226,13.3291925 C18.7737226,13.2919255 18.7883212,13.2546584 18.7883212,13.2298137 C19.270073,4.32298137 26.7007299,3.36645963 29.8832117,3.36645963 L29.9416058,3.36645963 L30.0583942,3.36645963 C34,3.44099379 40.7007299,4.80745342 41.1532847,13.2298137 C41.1532847,13.2670807 41.1532847,13.3043478 41.1678832,13.3291925 C41.1824818,13.4161491 42.2043796,21.863354 37.5620438,26.310559 C35.7226277,28.0745342 33.270073,28.9440994 30.0437956,28.9689441 L29.9708029,28.9689441 L29.9708029,28.9689441 L29.8978102,28.9689441 C26.6861314,28.9440994 24.2189781,28.0745342 22.3941606,26.310559 C17.7664234,21.8881988 18.7591241,13.4037267 18.7737226,13.3291925 Z" id="Shape"></path>
                        <path d="M59.9708029,47.6521739 L59.9708029,47.6149068 C59.9708029,47.515528 59.9562044,47.4161491 59.9562044,47.3043478 C59.8686131,44.8447205 59.6788321,39.0931677 53.3430657,37.2546584 C53.2992701,37.242236 53.2408759,37.2298137 53.1970803,37.2173913 C46.6131387,35.7888199 41.1386861,32.5590062 41.080292,32.5217391 C40.189781,31.9875776 38.9635036,32.173913 38.3357664,32.931677 C37.7080292,33.689441 37.9270073,34.7329193 38.8175182,35.2670807 C39.0656934,35.4161491 44.8759124,38.8571429 52.1459854,40.447205 C55.5474453,41.4782609 55.9270073,44.5714286 56.0291971,47.4037267 C56.0291971,47.515528 56.0291971,47.6149068 56.0437956,47.7142857 C56.0583942,48.8322981 55.9708029,50.5590062 55.7372263,51.552795 C53.3722628,52.6956522 44.1021898,56.6459627 30,56.6459627 C15.9562044,56.6459627 6.62773723,52.6832298 4.24817518,51.5403727 C4.01459854,50.5465839 3.91240876,48.8198758 3.94160584,47.7018634 C3.94160584,47.6024845 3.95620438,47.5031056 3.95620438,47.3913043 C4.05839416,44.5590062 4.4379562,41.4658385 7.83941606,40.4347826 C15.1094891,38.8447205 20.919708,35.3913043 21.1678832,35.2546584 C22.0583942,34.7204969 22.2773723,33.6770186 21.649635,32.9192547 C21.0218978,32.1614907 19.7956204,31.9751553 18.9051095,32.5093168 C18.8467153,32.5465839 13.4014599,35.7763975 6.78832117,37.2049689 C6.72992701,37.2173913 6.68613139,37.2298137 6.64233577,37.242236 C0.306569343,39.0931677 0.116788321,44.8447205 0.0291970803,47.2919255 C0.0291970803,47.4037267 0.0291970803,47.5031056 0.0145985401,47.6024845 L0.0145985401,47.6397516 C4.61436445e-16,48.2857143 -0.0145985401,51.6024845 0.759124088,53.2670807 C0.905109489,53.5900621 1.16788321,53.863354 1.51824818,54.0496894 C1.95620438,54.2981366 12.4525547,59.9875776 30.0145985,59.9875776 C47.5766423,59.9875776 58.0729927,54.2857143 58.5109489,54.0496894 C58.8467153,53.863354 59.1240876,53.5900621 59.270073,53.2670807 C60,51.6149068 59.9854015,48.2981366 59.9708029,47.6521739 Z" id="Shape"></path>
                    </g>
                </g>
            </g>
        </g>
    </g>
</svg>