<?xml version="1.0" encoding="utf-8"?>
<!-- Generator: Adobe Illustrator 18.0.0, SVG Export Plug-In . SVG Version: 6.00 Build 0)  -->
<!DOCTYPE svg PUBLIC "-//W3C//DTD SVG 1.1//EN" "http://www.w3.org/Graphics/SVG/1.1/DTD/svg11.dtd">
<svg version="1.1" id="Layer_1" xmlns="http://www.w3.org/2000/svg" xmlns:xlink="http://www.w3.org/1999/xlink" x="0px" y="0px"
	 viewBox="0 0 56.7 56.7" enable-background="new 0 0 56.7 56.7" xml:space="preserve">
<g>
	<path d="M45,4.8v1.4C45,6.7,44.6,7,44.1,7h-1.4c-0.5,0-0.8-0.4-0.8-0.8V4.8c0-0.5-0.4-0.8-0.8-0.8h-6.5c-0.5,0-0.8,0.4-0.8,0.8
		v20.3c0,0.5,0.4,0.8,0.8,0.8h17.8c0.5,0,0.8-0.4,0.8-0.8V4.8c0-0.5-0.4-0.8-0.8-0.8h-6.5C45.4,4,45,4.4,45,4.8z M44.6,19.6
		c-3.1,0.7-5.8-2-5.1-5.1c0.3-1.6,1.6-2.8,3.2-3.2c3.1-0.7,5.8,2,5.1,5.1C47.4,18,46.1,19.3,44.6,19.6z"/>
	<path d="M18.7,31.6v1.5c0,0.5-0.4,0.9-0.9,0.9H9.9c-0.5,0-0.9-0.4-0.9-0.9v-1.5c0-0.5-0.4-0.9-0.9-0.9H2.3c-0.5,0-0.9,0.4-0.9,0.9
		v21.2c0,0.5,0.4,0.9,0.9,0.9h5.9c0.5,0,0.9-0.4,0.9-0.9v-1.5c0-0.5,0.4-0.9,0.9-0.9h7.9c0.5,0,0.9,0.4,0.9,0.9v1.5
		c0,0.5,0.4,0.9,0.9,0.9h6c0.5,0,0.9-0.4,0.9-0.9V31.6c0-0.5-0.4-0.9-0.9-0.9h-6C19.1,30.7,18.7,31.1,18.7,31.6z M14.8,46.2
		c-3.1,0.7-5.8-2-5.1-5.1c0.3-1.6,1.6-2.8,3.2-3.2c3.1-0.7,5.8,2,5.1,5.1C17.7,44.6,16.4,45.9,14.8,46.2z"/>
	<path d="M53.2,38.1v-6.8c0-0.3-0.3-0.6-0.6-0.6H34.3c-0.3,0-0.6,0.3-0.6,0.6v6.8c0,0.3-0.3,0.6-0.6,0.6h-0.6
		c-0.3,0-0.6,0.3-0.6,0.6v12.2c0,0.3,0.3,0.6,0.6,0.6h0.6c0.3,0,0.6,0.3,0.6,0.6V53c0,0.3,0.3,0.6,0.6,0.6h18.3
		c0.3,0,0.6-0.3,0.6-0.6v-0.4c0-0.3,0.3-0.6,0.6-0.6h0.9c0.3,0,0.6-0.3,0.6-0.6V39.2c0-0.3-0.3-0.6-0.6-0.6h-0.9
		C53.5,38.7,53.2,38.4,53.2,38.1z M43.6,46.3c-2.3,0-4.2-1.9-4.2-4.2c0-2.3,1.9-4.2,4.2-4.2s4.2,1.9,4.2,4.2
		C47.8,44.4,45.9,46.3,43.6,46.3z"/>
	<path d="M19.7,6.7c-1-2.2-3.2-3.6-5.8-3.6S9.2,4.6,8.1,6.7H2.3c-0.5,0-0.8,0.4-0.8,0.8v17.7c0,0.5,0.4,0.8,0.8,0.8h23.3
		c0.5,0,0.8-0.4,0.8-0.8V7.6c0-0.5-0.4-0.8-0.8-0.8H19.7z M14.8,19.6c-3.1,0.7-5.8-2-5.1-5.1c0.3-1.6,1.6-2.8,3.2-3.2
		c3.1-0.7,5.8,2,5.1,5.1C17.7,18,16.4,19.3,14.8,19.6z"/>
</g>
</svg>
