<svg id="Layer_1" data-name="Layer 1" xmlns="http://www.w3.org/2000/svg" viewBox="0 0 56.69 56.69"><title>check</title><path d="M51.74,14.87l-5-5A3,3,0,0,0,44.59,9h0a3,3,0,0,0-2.14.91L22.54,30.27a.18.18,0,0,1-.26,0l-8.09-7.67a3,3,0,0,0-4.21.06l-5,5A3,3,0,0,0,5,32L20.32,46.87a3,3,0,0,0,4.26-.05l27.18-27.7A3,3,0,0,0,51.74,14.87Zm-2,2.26L22.55,44.83a.19.19,0,0,1-.26,0L7,30a.18.18,0,0,1-.06-.13A.18.18,0,0,1,7,29.7l5-5a.18.18,0,0,1,.13-.05.18.18,0,0,1,.13.05l8.09,7.67a3,3,0,0,0,4.24-.08L44.46,11.86a.18.18,0,0,1,.13-.06.18.18,0,0,1,.13.05l5,5A.19.19,0,0,1,49.73,17.13Z"/></svg>