<?xml version="1.0" encoding="utf-8"?>
<!-- Generator: Adobe Illustrator 18.0.0, SVG Export Plug-In . SVG Version: 6.00 Build 0)  -->
<!DOCTYPE svg PUBLIC "-//W3C//DTD SVG 1.1//EN" "http://www.w3.org/Graphics/SVG/1.1/DTD/svg11.dtd">
<svg version="1.1" id="Layer_1" xmlns="http://www.w3.org/2000/svg" xmlns:xlink="http://www.w3.org/1999/xlink" x="0px" y="0px"
	 viewBox="0 0 56.7 56.7" enable-background="new 0 0 56.7 56.7" xml:space="preserve">
<g>
	<path d="M6.4,39.4c0.1,0,0.1,0,0.2,0c0.2,0,0.4-0.1,0.5-0.3l8.4-24.7c0.3-0.8,0.8-1.4,1.6-1.8c0.7-0.4,1.6-0.4,2.4-0.1L50,22.9
		c0.3,0.1,0.5-0.1,0.6-0.3c0.1-0.3-0.1-0.5-0.3-0.6L19.7,11.5c-1-0.4-2.1-0.3-3.1,0.2c-1,0.5-1.7,1.3-2.1,2.3L6.1,38.7
		C6,39,6.1,39.3,6.4,39.4z"/>
	<path d="M15.1,34.3l-2.4-0.8c-0.3-0.1-0.5,0.1-0.6,0.3c-0.1,0.3,0.1,0.5,0.3,0.6l2.4,0.8c0.2,0.1,0.4,0.2,0.5,0.4
		c0.1,0.2,0.1,0.4,0,0.6l-1.6,4.8c-0.2,0.4-0.6,0.7-1,0.5l-2.4-0.8c-0.3-0.1-0.5,0-0.6,0.3c-0.1,0.3,0,0.5,0.3,0.6l2.4,0.8
		c0.2,0.1,0.4,0.1,0.6,0.1c0.8,0,1.5-0.5,1.7-1.3l1.6-4.8c0.2-0.5,0.1-1-0.1-1.4C15.9,34.8,15.5,34.5,15.1,34.3z"/>
	<path d="M18.5,24.3l-2.4-0.8c-0.3-0.1-0.5,0.1-0.6,0.3c-0.1,0.3,0.1,0.5,0.3,0.6l2.4,0.8c0.2,0.1,0.4,0.2,0.5,0.4
		c0.1,0.2,0.1,0.4,0,0.6L17,31.2c-0.1,0.4-0.6,0.7-1,0.5l-2.4-0.8c-0.3-0.1-0.5,0-0.6,0.3c-0.1,0.3,0.1,0.5,0.3,0.6l2.4,0.8
		c0.2,0.1,0.4,0.1,0.6,0.1c0.8,0,1.5-0.5,1.7-1.3l1.6-4.8c0.2-0.5,0.1-1-0.1-1.4C19.3,24.8,18.9,24.5,18.5,24.3z"/>
	<path d="M24.2,17.3c-0.3-0.1-0.5,0.1-0.6,0.3l-0.8,2.4c-0.1,0.2-0.2,0.4-0.4,0.5c-0.2,0.1-0.4,0.1-0.6,0l-0.5-0.2
		c-0.1,0-0.3,0-0.4,0c-0.1,0.1-0.2,0.2-0.3,0.3l-0.2,0.5c-0.1,0.4-0.6,0.6-1,0.5L17,20.9c-0.3-0.1-0.5,0-0.6,0.3
		c-0.1,0.3,0,0.5,0.3,0.6l2.4,0.8c0.2,0.1,0.4,0.1,0.6,0.1c0.8,0,1.5-0.5,1.7-1.2l0,0l0,0c0.5,0.2,0.9,0.1,1.4-0.1
		c0.4-0.2,0.8-0.6,0.9-1l0.8-2.4C24.6,17.7,24.5,17.4,24.2,17.3z"/>
	<path d="M27.1,18.9c0.1-0.3-0.1-0.5-0.3-0.6c-0.3-0.1-0.5,0.1-0.6,0.3L25.4,21c-0.2,0.5-0.1,1,0.1,1.4c0.2,0.4,0.6,0.8,1.1,0.9
		l4.8,1.6c0.2,0.1,0.4,0.1,0.6,0.1c0.8,0,1.5-0.5,1.7-1.2l0.8-2.4c0.1-0.3-0.1-0.5-0.3-0.6c-0.3-0.1-0.5,0.1-0.6,0.3l-0.8,2.4
		c-0.1,0.4-0.6,0.6-1.1,0.5l-4.8-1.6c-0.2-0.1-0.4-0.2-0.5-0.4c-0.1-0.2-0.1-0.4,0-0.6L27.1,18.9z"/>
	<path d="M44.1,24.2c-0.3-0.1-0.5,0.1-0.6,0.3l-0.8,2.4c-0.1,0.2-0.2,0.4-0.4,0.5c-0.2,0.1-0.4,0.1-0.7,0l-4.8-1.6
		c-0.4-0.2-0.7-0.6-0.5-1l0.8-2.4c0.1-0.3-0.1-0.5-0.3-0.6c-0.3-0.1-0.5,0.1-0.6,0.3l-0.8,2.4c-0.3,0.9,0.2,2,1.2,2.3l4.8,1.6
		c0.2,0.1,0.4,0.1,0.6,0.1c0.3,0,0.6-0.1,0.8-0.2c0.4-0.2,0.8-0.6,0.9-1l0.8-2.4C44.5,24.5,44.4,24.2,44.1,24.2z"/>
	<path d="M54.1,27.6c-0.3-0.1-0.5,0.1-0.6,0.3l-0.8,2.4c-0.1,0.4-0.6,0.6-1.1,0.5l-4.8-1.6c-0.2-0.1-0.4-0.2-0.5-0.4
		c-0.1-0.2-0.1-0.4,0-0.6l0.8-2.4c0.1-0.3-0.1-0.5-0.3-0.6c-0.3-0.1-0.5,0.1-0.6,0.3l-0.8,2.4c-0.2,0.4-0.1,0.9,0.1,1.4
		c0.2,0.4,0.6,0.8,1.1,0.9l4.8,1.6c0.2,0.1,0.4,0.1,0.6,0.1c0.8,0,1.5-0.5,1.7-1.2l0.8-2.4C54.5,27.9,54.4,27.7,54.1,27.6z"/>
	<path d="M28.2,32.2c-0.1-0.2-0.4-0.3-0.7-0.2c-0.2,0.1-0.3,0.4-0.2,0.7l7.4,12.8c0.1,0.2,0.3,0.3,0.4,0.3c0.1,0,0.2,0,0.2-0.1
		c0.2-0.1,0.3-0.4,0.2-0.7L28.2,32.2z"/>
	<path d="M25.6,34.7c-0.3,0.1-0.4,0.4-0.3,0.6c0,0.1,1.8,5.9,0.9,10.5c-0.1,0.3,0.1,0.5,0.4,0.6c0,0,0.1,0,0.1,0
		c0.2,0,0.4-0.2,0.5-0.4c1-4.8-0.9-10.7-1-11C26.1,34.7,25.8,34.6,25.6,34.7z"/>
	<path d="M42.1,41.2c-4.7-1.7-10.2-8.7-10.3-8.8c-0.2-0.2-0.5-0.3-0.7-0.1c-0.2,0.2-0.3,0.5-0.1,0.7c0.2,0.3,5.7,7.3,10.7,9.1
		c0.1,0,0.1,0,0.2,0c0.2,0,0.4-0.1,0.5-0.3C42.5,41.6,42.3,41.3,42.1,41.2z"/>
</g>
</svg>
