<?xml version="1.0" encoding="utf-8"?>
<!-- Generator: Adobe Illustrator 18.0.0, SVG Export Plug-In . SVG Version: 6.00 Build 0)  -->
<!DOCTYPE svg PUBLIC "-//W3C//DTD SVG 1.1//EN" "http://www.w3.org/Graphics/SVG/1.1/DTD/svg11.dtd">
<svg version="1.1" id="Layer_1" xmlns="http://www.w3.org/2000/svg" xmlns:xlink="http://www.w3.org/1999/xlink" x="0px" y="0px"
	 viewBox="0 0 56.7 56.7" enable-background="new 0 0 56.7 56.7" xml:space="preserve">
<path d="M43,12.2c-0.1-0.1-0.2-0.2-0.4-0.2H14.1c-0.1,0-0.3,0.1-0.4,0.2c-0.1,0.1-0.2,0.2-0.2,0.4v31.5c0,0.1,0.1,0.3,0.2,0.4
	c0.1,0.1,0.2,0.2,0.4,0.2h28.5c0.1,0,0.3-0.1,0.4-0.2c0.1-0.1,0.2-0.2,0.2-0.4V12.6C43.1,12.5,43.1,12.3,43,12.2z M15.5,14.6
	C15.5,14.5,15.5,14.5,15.5,14.6c0-0.1,0-0.1,0-0.1c0,0,0-0.1,0-0.1c0,0,0-0.1,0.1-0.1c0,0,0-0.1,0-0.1c0,0,0,0,0,0c0,0,0,0,0,0
	c0,0,0.1,0,0.1,0c0,0,0.1,0,0.1-0.1c0,0,0.1,0,0.1,0c0,0,0,0,0.1,0h3.3c0.3,0,0.5,0.2,0.5,0.5c0,0.3-0.2,0.5-0.5,0.5h-2.1l3.1,3.5
	c0.2,0.2,0.2,0.6,0,0.7c-0.2,0.2-0.6,0.2-0.7,0l-3-3.3v1.8c0,0.3-0.2,0.5-0.5,0.5s-0.5-0.2-0.5-0.5V14.6z M20.5,38l-3.3,3.7h2.1
	c0.3,0,0.5,0.2,0.5,0.5s-0.2,0.5-0.5,0.5H16c0,0,0,0-0.1,0c0,0-0.1,0-0.1,0c0,0-0.1,0-0.1-0.1c0,0-0.1,0-0.1,0c0,0,0,0,0,0
	c0,0,0,0,0,0c0,0,0-0.1-0.1-0.1c0,0,0-0.1-0.1-0.1c0,0,0-0.1,0-0.1c0,0,0-0.1,0-0.1c0,0,0,0,0,0V39c0-0.3,0.2-0.5,0.5-0.5
	s0.5,0.2,0.5,0.5v1.8l3.2-3.6c0.2-0.2,0.5-0.2,0.7,0C20.7,37.4,20.7,37.8,20.5,38z M35.1,28.9c0,0.5-0.5,1-1,1H22.6
	c-0.5,0-1-0.4-1-1v-9c0-0.5,0.4-1,1-1h11.5c0.5,0,1,0.4,1,1V28.9z M41.2,42.2C41.2,42.2,41.2,42.2,41.2,42.2c0,0.1,0,0.1,0,0.1
	c0,0,0,0.1,0,0.1c0,0,0,0.1-0.1,0.1c0,0,0,0.1-0.1,0.1c0,0,0,0,0,0c0,0,0,0,0,0c0,0,0,0-0.1,0c0,0-0.1,0-0.1,0.1c0,0-0.1,0-0.1,0
	c0,0,0,0-0.1,0h-3.3c-0.3,0-0.5-0.2-0.5-0.5s0.2-0.5,0.5-0.5h2.1L36.2,38c-0.2-0.2-0.2-0.6,0-0.7c0.2-0.2,0.6-0.2,0.7,0l3.2,3.6V39
	c0-0.3,0.2-0.5,0.5-0.5s0.5,0.2,0.5,0.5V42.2z M41.2,17.7c0,0.3-0.2,0.5-0.5,0.5s-0.5-0.2-0.5-0.5v-1.8l-3,3.3
	c-0.2,0.2-0.5,0.2-0.7,0c-0.2-0.2-0.2-0.5,0-0.7l3.1-3.5h-2.1c-0.3,0-0.5-0.2-0.5-0.5c0-0.3,0.2-0.5,0.5-0.5h3.3c0,0,0,0,0.1,0
	c0,0,0.1,0,0.1,0c0,0,0.1,0,0.1,0.1c0,0,0,0,0.1,0c0,0,0,0,0,0c0,0,0,0,0,0c0,0,0,0.1,0.1,0.1c0,0,0,0.1,0.1,0.1c0,0,0,0.1,0,0.1
	c0,0,0,0.1,0,0.1c0,0,0,0,0,0V17.7z M31.7,23.6c0,1.9-1.5,3.4-3.4,3.4c-1.9,0-3.4-1.5-3.4-3.4c0-1.9,1.5-3.4,3.4-3.4
	C30.2,20.3,31.7,21.8,31.7,23.6z"/>
</svg>
