<svg id="Layer_1" data-name="Layer 1" xmlns="http://www.w3.org/2000/svg" viewBox="0 0 56.69 56.69"><defs><style>.cls-1{fill:#231f20;}</style></defs><title>thumbs_up</title><path class="cls-1" d="M20.86,23.8a1.42,1.42,0,0,0-1.42-1.41H9.35a1.41,1.41,0,0,0,0,2.83H19.44A1.42,1.42,0,0,0,20.86,23.8Z"/><path class="cls-1" d="M48.26,22.38H38.17a1.41,1.41,0,1,0,0,2.83H48.26a1.41,1.41,0,0,0,0-2.83Z"/><path class="cls-1" d="M28.8,15.85a1.42,1.42,0,0,0,1.42-1.41V4.34a1.41,1.41,0,0,0-2.83,0V14.43A1.42,1.42,0,0,0,28.8,15.85Z"/><path class="cls-1" d="M35.42,18.59a1.45,1.45,0,0,0,1-.41L43.57,11a1.42,1.42,0,0,0-2-2l-7.14,7.14a1.42,1.42,0,0,0,0,2A1.46,1.46,0,0,0,35.42,18.59Z"/><path class="cls-1" d="M21.19,18.18a1.43,1.43,0,0,0,1,.41,1.45,1.45,0,0,0,1-.41,1.42,1.42,0,0,0,0-2L16,9a1.42,1.42,0,1,0-2,2Z"/><path class="cls-1" d="M44,31.62a5.37,5.37,0,0,0-3.49-1.31h-7V25.38c0-2.49-.75-4.3-2.22-5.39-2.27-1.66-5.28-.81-5.61-.7a1.41,1.41,0,0,0-1,1.34v6.13a5.52,5.52,0,0,1-2.6,4.59,10.5,10.5,0,0,1-2.84,1.43h0a2.75,2.75,0,0,0-2-.85H12.42a2.75,2.75,0,0,0-2.75,2.75V50.38a2.75,2.75,0,0,0,2.75,2.75h4.8a2.7,2.7,0,0,0,1.65-.56A5.4,5.4,0,0,0,22.57,54h15A7.06,7.06,0,0,0,41.54,53a5.72,5.72,0,0,0,2.4-4.16l1.94-12.06A5.58,5.58,0,0,0,44,31.62Zm-6.44,19.6h-15A2.63,2.63,0,0,1,20,49a.65.65,0,0,0,0-.12V35.53h0a13,13,0,0,0,3.67-1.82,8.35,8.35,0,0,0,3.84-6.94v-5a3.17,3.17,0,0,1,2.1.46c.71.52,1.07,1.57,1.07,3.1v6.34a1.42,1.42,0,0,0,1.42,1.41h8.46a2.6,2.6,0,0,1,1.65.62,2.81,2.81,0,0,1,.9,2.55L41.15,48.4v0C41.06,49.13,40.82,51.22,37.59,51.22ZM17.13,34.77V50.3H12.5V34.77Z"/></svg>