<?xml version="1.0" encoding="UTF-8"?>
<svg width="43px" height="24px" viewBox="0 0 43 24" version="1.1" xmlns="http://www.w3.org/2000/svg" xmlns:xlink="http://www.w3.org/1999/xlink">
    <!-- Generator: Sketch 46.2 (44496) - http://www.bohemiancoding.com/sketch -->
    <title>arrow01</title>
    <desc>Created with Sketch.</desc>
    <defs></defs>
    <g id="home" stroke="none" stroke-width="1" fill="none" fill-rule="evenodd" opacity="0.200000003">
        <g id="05-01-znacka" transform="translate(-813.000000, -241.000000)" fill="#1A1919">
            <g id="benefitts" transform="translate(734.000000, 202.000000)">
                <g id="benefits" transform="translate(1.000000, 9.000000)">
                    <g id="title" transform="translate(0.000000, 16.000000)">
                        <path d="M113.969004,13.7603785 C116.913047,14.9831285 123.425354,15.7608003 121.134694,20.260187 C118.571849,25.2942231 113.955117,27.9744134 110.969413,31.9245694 C109.462674,31.9946988 108.080918,31.0010842 108.303109,29.758198 C108.247561,28.9812206 109.066894,29.0777352 109.469617,28.7583343 C112.093565,25.8288725 115.295906,23.4750266 117.301189,19.9268991 C108.962047,18.6347141 98.8877261,19.6838767 92.8052218,24.4262859 C89.7563318,26.8009622 86.2088986,31.0989875 85.4721935,34.758211 C85.1250186,36.4801985 86.1602941,37.8265428 85.1395999,39.4242417 C84.5910636,40.264405 82.966285,39.1395583 82.3066527,38.5910219 C81.8622688,33.7305733 83.6884088,29.7241749 86.1394637,26.7593012 C92.0622675,19.6074982 101.797052,16.2461508 113.469072,16.9266136 C110.704865,15.0247895 106.976901,14.0874173 103.636384,12.7605148 C103.276017,11.9557634 102.435854,11.6287246 102.470571,10.4274994 C106.504743,9.70537564 110.025097,12.121713 113.969004,13.7603785" id="arrow01" transform="translate(101.926696, 25.010978) scale(-1, -1) rotate(-130.000000) translate(-101.926696, -25.010978) "></path>
                    </g>
                </g>
            </g>
        </g>
    </g>
</svg>