<?xml version="1.0" encoding="UTF-8"?>
<svg width="32px" height="42px" viewBox="0 0 32 42" version="1.1" xmlns="http://www.w3.org/2000/svg" xmlns:xlink="http://www.w3.org/1999/xlink">
    <!-- Generator: Sketch 44.1 (41455) - http://www.bohemiancoding.com/sketch -->
    <title>arrow04</title>
    <desc>Created with Sketch.</desc>
    <defs></defs>
    <g id="home" stroke="none" stroke-width="1" fill="none" fill-rule="evenodd" opacity="0.200000003">
        <g id="04-detail-c" transform="translate(-40.000000, -339.000000)" fill="#1A1918">
            <g id="main" transform="translate(29.000000, 78.000000)">
                <g id="slider" transform="translate(0.000000, 105.000000)">
                    <g id="help" transform="translate(0.000000, 5.000000)">
                        <path d="M46.6737887,170.733775 C42.9827887,177.983775 36.3337887,181.843775 32.0337887,187.532775 C29.8637887,187.633775 27.8737887,186.202775 28.1937887,184.412775 C28.1137887,183.293775 29.2937887,183.432775 29.8737887,182.972775 C33.6527887,178.753775 38.2647887,175.363775 41.1527887,170.253775 C30.8453332,168.656592 18.6971769,169.543139 9.92235612,174.144227 C8.47296616,174.904217 4.27162103,172.505471 9.48889619,170.138557 C16.8821546,166.784468 25.7784822,165.358224 35.6337887,165.932775 C31.6527887,163.193775 26.2837887,161.843775 21.4727887,159.932775 C20.9537887,158.773775 19.7437887,158.302775 19.7937887,156.572775 C25.6037887,155.532775 30.6737887,159.012775 36.3537887,161.372775 C40.5937887,163.133775 49.9727887,164.253775 46.6737887,170.733775 Z" id="arrow04" transform="translate(27.155925, 171.960723) rotate(91.000000) translate(-27.155925, -171.960723) "></path>
                    </g>
                </g>
            </g>
        </g>
    </g>
</svg>