<?xml version="1.0" encoding="UTF-8"?>
<svg width="43px" height="58px" viewBox="0 0 43 58" version="1.1" xmlns="http://www.w3.org/2000/svg" xmlns:xlink="http://www.w3.org/1999/xlink">
    <!-- Generator: Sketch 42 (36781) - http://www.bohemiancoding.com/sketch -->
    <title>arrow03</title>
    <desc>Created with Sketch.</desc>
    <defs></defs>
    <g id="home" stroke="none" stroke-width="1" fill="none" fill-rule="evenodd" opacity="0.200000003">
        <g id="04-detail-c" transform="translate(-29.000000, -207.000000)" fill="#1A1918">
            <g id="main" transform="translate(28.000000, 78.000000)">
                <g id="slider" transform="translate(0.000000, 105.000000)">
                    <g id="help" transform="translate(0.000000, 5.000000)">
                        <path d="M39.7240641,31.4191889 C43.9640641,33.1801889 53.3430641,34.3001889 50.0440641,40.7801889 C46.3530641,48.0301889 39.7040641,51.8901889 35.4040641,57.5791889 C33.2340641,57.6801889 31.2440641,56.2491889 31.5640641,54.4591889 C31.4840641,53.3401889 32.6640641,53.4791889 33.2440641,53.0191889 C37.0230641,48.8001889 41.6350641,45.4101889 44.5230641,40.3001889 C32.5130641,38.4391889 18.0040641,39.9501889 9.24406405,46.7801889 C4.85306405,50.2001889 -0.255935949,56.3901889 -1.31693595,61.6601889 C-1.81693595,64.1401889 -0.325935949,66.0791889 -1.79593595,68.3801889 C-2.58593595,69.5901889 -4.92593595,67.9701889 -5.87593595,67.1801889 C-6.51593595,60.1801889 -3.88593595,54.4101889 -0.355935949,50.1401889 C8.17406405,39.8401889 22.1940641,34.9991889 39.0040641,35.9791889 C35.0230641,33.2401889 29.6540641,31.8901889 24.8430641,29.9791889 C24.3240641,28.8201889 23.1140641,28.3491889 23.1640641,26.6191889 C28.9740641,25.5791889 34.0440641,29.0591889 39.7240641,31.4191889" id="arrow03" transform="translate(22.380777, 47.622260) scale(-1, -1) rotate(91.000000) translate(-22.380777, -47.622260) "></path>
                    </g>
                </g>
            </g>
        </g>
    </g>
</svg>