<?xml version="1.0" encoding="UTF-8"?>
<svg width="64px" height="34px" viewBox="0 0 64 34" version="1.1" xmlns="http://www.w3.org/2000/svg" xmlns:xlink="http://www.w3.org/1999/xlink">
    <!-- Generator: Sketch 42 (36781) - http://www.bohemiancoding.com/sketch -->
    <title>arrow02</title>
    <desc>Created with Sketch.</desc>
    <defs></defs>
    <g id="home" stroke="none" stroke-width="1" fill="none" fill-rule="evenodd" opacity="0.200000003">
        <g id="04-detail-c" transform="translate(-72.000000, -219.000000)" fill="#1A1918">
            <g id="main" transform="translate(66.000000, 78.000000)">
                <g id="slider" transform="translate(0.000000, 105.000000)">
                    <g id="help" transform="translate(0.000000, 5.000000)">
                        <path d="M52.8024252,31.1386828 C57.0424252,32.8996828 66.4214252,34.0196828 63.1224252,40.4996828 C59.4314252,47.7496828 52.7824252,51.6096828 48.4824252,57.2986828 C46.3124252,57.3996828 44.3224252,55.9686828 44.6424252,54.1786828 C44.5624252,53.0596828 45.7424252,53.1986828 46.3224252,52.7386828 C50.1014252,48.5196828 54.7134252,45.1296828 57.6014252,40.0196828 C45.5914252,38.1586828 31.0824252,39.6696828 22.3224252,46.4996828 C17.9314252,49.9196828 12.8224252,56.1096828 11.7614252,61.3796828 C11.2614252,63.8596828 12.7524252,65.7986828 11.2824252,68.0996828 C10.4924252,69.3096828 8.15242518,67.6896828 7.20242518,66.8996828 C6.56242518,59.8996828 9.19242518,54.1296828 12.7224252,49.8596828 C21.2524252,39.5596828 35.2724252,34.7186828 52.0824252,35.6986828 C48.1014252,32.9596828 42.7324252,31.6096828 37.9214252,29.6986828 C37.4024252,28.5396828 36.1924252,28.0686828 36.2424252,26.3386828 C42.0524252,25.2986828 47.1224252,28.7786828 52.8024252,31.1386828" id="arrow02" transform="translate(35.459138, 47.341754) scale(-1, -1) rotate(35.000000) translate(-35.459138, -47.341754) "></path>
                    </g>
                </g>
            </g>
        </g>
    </g>
</svg>