<?xml version="1.0" encoding="UTF-8"?>
<svg width="60px" height="34px" viewBox="0 0 60 34" version="1.1" xmlns="http://www.w3.org/2000/svg" xmlns:xlink="http://www.w3.org/1999/xlink">
    <!-- Generator: Sketch 42 (36781) - http://www.bohemiancoding.com/sketch -->
    <title>arrow01</title>
    <desc>Created with Sketch.</desc>
    <defs></defs>
    <g id="home" stroke="none" stroke-width="1" fill="none" fill-rule="evenodd" opacity="0.200000003">
        <g id="04-detail-c" transform="translate(-402.000000, -219.000000)" fill="#1A1918">
            <g id="main" transform="translate(150.000000, 78.000000)">
                <g id="slider" transform="translate(0.000000, 105.000000)">
                    <g id="help" transform="translate(69.000000, 5.000000)">
                        <path d="M233.696293,30.9891413 C237.936293,32.7501413 247.315293,33.8701413 244.016293,40.3501413 C240.325293,47.6001413 233.676293,51.4601413 229.376293,57.1491413 C227.206293,57.2501413 225.216293,55.8191413 225.536293,54.0291413 C225.456293,52.9101413 226.636293,53.0491413 227.216293,52.5891413 C230.995293,48.3701413 235.607293,44.9801413 238.495293,39.8701413 C226.485293,38.0091413 211.976293,39.5201413 203.216293,46.3501413 C198.825293,49.7701413 193.716293,55.9601413 192.655293,61.2301413 C192.155293,63.7101413 193.646293,65.6491413 192.176293,67.9501413 C191.386293,69.1601413 189.046293,67.5401413 188.096293,66.7501413 C187.456293,59.7501413 190.086293,53.9801413 193.616293,49.7101413 C202.146293,39.4101413 216.166293,34.5691413 232.976293,35.5491413 C228.995293,32.8101413 223.626293,31.4601413 218.815293,29.5491413 C218.296293,28.3901413 217.086293,27.9191413 217.136293,26.1891413 C222.946293,25.1491413 228.016293,28.6291413 233.696293,30.9891413" id="arrow01" transform="translate(216.353006, 47.192213) scale(-1, -1) rotate(-130.000000) translate(-216.353006, -47.192213) "></path>
                    </g>
                </g>
            </g>
        </g>
    </g>
</svg>