<?xml version="1.0" encoding="UTF-8"?>
<svg width="60px" height="60px" viewBox="0 0 60 60" version="1.1" xmlns="http://www.w3.org/2000/svg" xmlns:xlink="http://www.w3.org/1999/xlink">
    <!-- Generator: Sketch 52.1 (67048) - http://www.bohemiancoding.com/sketch -->
    <title>icon/check4</title>
    <desc>Created with Sketch.</desc>
    <g id="icon/check4" stroke="none" stroke-width="1" fill="none" fill-rule="evenodd">
        <path d="M44.4487986,21.637359 C44.7993294,21.9845013 44.9976616,22.4573687 44.9999795,22.9514955 C45.0022973,23.4456223 44.8084102,23.9203414 44.4611516,24.2707779 L27.6733433,41.4344726 C27.329554,41.7905111 26.8582552,41.9940542 26.3641762,41.9998718 C25.8700972,42.0056894 25.394166,41.8132995 25.0421415,41.465454 L15.5796977,32.2515861 C15.211813,31.902522 15.0023532,31.4176273 15.0000197,30.9096447 C14.9976862,30.4016621 15.2026824,29.9148514 15.5673446,29.5624007 L18.6556096,26.4642609 C19.3667034,25.7412889 20.5245863,25.7247343 21.2559287,26.4270832 L26.2527414,31.1796297 C26.2737123,31.2015972 26.3027167,31.2140197 26.3330363,31.2140197 C26.3633559,31.2140197 26.3923603,31.2015972 26.4133312,31.1796297 L38.7108023,18.5640043 C39.0579086,18.2054191 39.5343391,18.002177 40.0325797,18.0001428 C40.5293706,17.9939686 41.0078231,18.188194 41.3605336,18.5392192 L44.4487986,21.637359 Z M30,57 C44.9116882,57 57,44.9116882 57,30 C57,15.0883118 44.9116882,3 30,3 C15.0883118,3 3,15.0883118 3,30 C3,44.9116882 15.0883118,57 30,57 Z M30,60 C13.4314575,60 0,46.5685425 0,30 C0,13.4314575 13.4314575,0 30,0 C46.5685425,0 60,13.4314575 60,30 C60,46.5685425 46.5685425,60 30,60 Z" id="Combined-Shape" fill="#FF585B" fill-rule="nonzero"></path>
    </g>
</svg>