<?xml version="1.0" encoding="UTF-8"?>
<svg width="24px" height="24px" viewBox="0 0 24 24" version="1.1" xmlns="http://www.w3.org/2000/svg" xmlns:xlink="http://www.w3.org/1999/xlink">
    <!-- Generator: Sketch 52.1 (67048) - http://www.bohemiancoding.com/sketch -->
    <title>Rectangle 2</title>
    <desc>Created with Sketch.</desc>
    <g id="Page-1" stroke="none" stroke-width="1" fill="none" fill-rule="evenodd">
        <path d="M4,2 C2.8954305,2 2,2.8954305 2,4 L2,20 C2,21.1045695 2.8954305,22 4,22 L20,22 C21.1045695,22 22,21.1045695 22,20 L22,4 C22,2.8954305 21.1045695,2 20,2 L4,2 Z M4,0 L20,0 C22.209139,0 24,1.790861 24,4 L24,20 C24,22.209139 22.209139,24 20,24 L4,24 C1.790861,24 0,22.209139 0,20 L0,4 C0,1.790861 1.790861,0 4,0 Z" id="Rectangle-2" fill="#5736B9" fill-rule="nonzero"></path>
    </g>
</svg>