<?xml version="1.0" encoding="UTF-8"?>
<svg width="24px" height="24px" viewBox="0 0 24 24" version="1.1" xmlns="http://www.w3.org/2000/svg" xmlns:xlink="http://www.w3.org/1999/xlink">
    <!-- Generator: Sketch 52.1 (67048) - http://www.bohemiancoding.com/sketch -->
    <title>Combined Shape</title>
    <desc>Created with Sketch.</desc>
    <defs>
        <linearGradient x1="0%" y1="0%" x2="101.999998%" y2="100.999999%" id="linearGradient-1">
            <stop stop-color="#3023AE" offset="0%"></stop>
            <stop stop-color="#C86DD7" offset="100%"></stop>
        </linearGradient>
    </defs>
    <g id="Page-1" stroke="none" stroke-width="1" fill="none" fill-rule="evenodd">
        <path d="M4,0 L20,0 C22.209139,-4.05812251e-16 24,1.790861 24,4 L24,20 C24,22.209139 22.209139,24 20,24 L4,24 C1.790861,24 2.705415e-16,22.209139 0,20 L0,4 C-2.705415e-16,1.790861 1.790861,4.05812251e-16 4,0 Z M19.7060259,6.79356427 L18.0589512,5.02283097 C17.870839,4.82220351 17.6156643,4.71119452 17.3507092,4.71472338 C17.0849808,4.71588601 16.8308846,4.83204845 16.6457612,5.03699684 L10.08711,12.2474228 C10.0759255,12.2599783 10.0604565,12.2670783 10.044286,12.2670783 C10.0281156,12.2670783 10.0126466,12.2599783 10.0014621,12.2474228 L7.3364953,9.53111795 C6.94644603,9.12969235 6.32890846,9.13915412 5.94965845,9.55236675 L4.3025838,11.3231001 C4.10809728,11.5245423 3.99876599,11.8027776 4.00001051,12.0931137 C4.00125503,12.3834497 4.11296692,12.6605899 4.3091721,12.8600966 L9.35580882,18.1262574 C9.54355522,18.3250676 9.79738515,18.4350275 10.060894,18.4317024 C10.3244027,18.4283774 10.5757621,18.3120429 10.7591164,18.1085501 L19.7126142,8.29868758 C19.8978188,8.09839657 20.0012253,7.82707216 19.999989,7.54465537 C19.9987528,7.26223859 19.8929757,6.99197247 19.7060259,6.79356427 Z" id="Combined-Shape" fill="url(#linearGradient-1)" fill-rule="nonzero"></path>
    </g>
</svg>