<?xml version="1.0" encoding="utf-8"?>
<!-- Generator: Adobe Illustrator 18.0.0, SVG Export Plug-In . SVG Version: 6.00 Build 0)  -->
<!DOCTYPE svg PUBLIC "-//W3C//DTD SVG 1.1//EN" "http://www.w3.org/Graphics/SVG/1.1/DTD/svg11.dtd">
<svg version="1.1" id="Layer_1" xmlns="http://www.w3.org/2000/svg" xmlns:xlink="http://www.w3.org/1999/xlink" x="0px" y="0px"
	 viewBox="0 0 56.7 56.7" enable-background="new 0 0 56.7 56.7" xml:space="preserve">
<path d="M49.6,13.8h-5.3c0,0,0,0,0-0.1c0-0.1,0-0.3,0-0.6c0.1-2,0.2-5.6-1.7-7.6c-0.8-0.8-1.8-1.2-3-1.2c-2.9,0-6.5,2.6-7.9,3.7
	c-0.5,0.4-2.2,1.8-3.4,3.2C27.2,9.8,25.5,8.5,25,8c-1.4-1.1-5-3.7-7.9-3.7c-1.2,0-2.2,0.4-3,1.2c-1.9,2-1.8,5.6-1.7,7.6
	c0,0.2,0,0.4,0,0.5c0,0,0,0,0,0.1H7.1c-1.5,0-2.6,1.2-2.6,2.6v9c0,1.5,1.2,2.6,2.6,2.6h1.2v22.2c0,1.1,0.9,2,2,2h36c1.1,0,2-0.9,2-2
	V28.1h1.2c1.5,0,2.6-1.2,2.6-2.6v-9C52.2,15,51.1,13.8,49.6,13.8z M23.8,28.1v21.4H11.2V28.1H23.8z M49.4,16.6v8.6H32.9v-8.6H49.4z
	 M41.5,13l0,0.1c0,0,0,0.1,0,0.1c-1.7,0.1-7.9,0.3-10.2,0.3c-0.3,0-0.5,0-0.6,0c-0.2,0-0.3-0.1-0.5-0.1c0.5-0.7,1.6-1.9,3.4-3.3
	c2.3-1.8,4.6-2.9,5.9-2.9c0.4,0,0.7,0.1,1,0.4C41.6,8.6,41.5,11.8,41.5,13z M30.1,16.7v8.6h-3.5v-8.6H30.1z M26.5,13.4
	c-0.1,0-0.3,0.1-0.5,0.1c-0.1,0-0.3,0-0.6,0c-2.3,0-8.5-0.2-10.2-0.3c0-0.1,0-0.1,0-0.2c0-1.2-0.1-4.4,0.9-5.5
	c0.3-0.3,0.5-0.4,1-0.4c1.3,0,3.6,1.1,5.9,2.9C24.8,11.5,26,12.8,26.5,13.4z M23.8,16.6v8.6H7.3v-8.6H23.8z M30.1,28.1v21.4h-3.5
	V28.1H30.1z M45.5,28.1v21.4H32.9V28.1H45.5z"/>
</svg>
