<?xml version="1.0" encoding="UTF-8"?>
<svg width="60px" height="60px" viewBox="0 0 60 60" version="1.1" xmlns="http://www.w3.org/2000/svg" xmlns:xlink="http://www.w3.org/1999/xlink">
    <!-- Generator: Sketch 52.1 (67048) - http://www.bohemiancoding.com/sketch -->
    <title>icon/microfilter</title>
    <desc>Created with Sketch.</desc>
    <g id="icon/microfilter" stroke="none" stroke-width="1" fill="none" fill-rule="evenodd">
        <path d="M15,47 L15,58 L58,58 L58,15 L47,15 L47,45 C47,46.1045695 46.1045695,47 45,47 L15,47 Z M47,13 L58,13 C59.1045695,13 60,13.8954305 60,15 L60,58 C60,59.1045695 59.1045695,60 58,60 L15,60 C13.8954305,60 13,59.1045695 13,58 L13,47 L2,47 C0.8954305,47 1.3527075e-16,46.1045695 0,45 L0,2 C-1.3527075e-16,0.8954305 0.8954305,2.02906125e-16 2,0 L45,0 C46.1045695,-2.02906125e-16 47,0.8954305 47,2 L47,13 Z M2,2 L2,45 L45,45 L45,2 L2,2 Z M2,12.1025767 L7.7321485,5.29136638 C8.1719025,4.76882984 8.97645854,4.76882984 9.41621255,5.29136638 L16,13.1145344 L22.5837875,5.29136638 C23.0235415,4.76882984 23.8280975,4.76882984 24.2678515,5.29136638 L31,13.2908241 L37.7321485,5.29136638 C38.1719025,4.76882984 38.9764585,4.76882984 39.4162125,5.29136638 L45,11.9262871 L45,15.344639 L38.5741805,7.70917595 L31.842032,15.7086336 C31.402278,16.2311702 30.597722,16.2311702 30.157968,15.7086336 L23.4258195,7.70917595 L16.842032,15.532344 C16.402278,16.0548805 15.597722,16.0548805 15.157968,15.532344 L8.57418052,7.70917595 L2,15.5209286 L2,12.1025767 Z M2,24.5209286 L2,21.1025767 L7.7321485,14.2913664 C8.1719025,13.7688298 8.97645854,13.7688298 9.41621255,14.2913664 L16,22.1145344 L22.5837875,14.2913664 C23.0235415,13.7688298 23.8280975,13.7688298 24.2678515,14.2913664 L31,22.2908241 L37.7321485,14.2913664 C38.1719025,13.7688298 38.9764585,13.7688298 39.4162125,14.2913664 L45,20.9262871 L45,24.344639 L38.5741805,16.7091759 L31.842032,24.7086336 C31.402278,25.2311702 30.597722,25.2311702 30.157968,24.7086336 L23.4258195,16.7091759 L16.842032,24.532344 C16.402278,25.0548805 15.597722,25.0548805 15.157968,24.532344 L8.57418052,16.7091759 L2,24.5209286 Z M2,33.5209286 L2,30.1025767 L7.7321485,23.2913664 C8.1719025,22.7688298 8.97645854,22.7688298 9.41621255,23.2913664 L16,31.1145344 L22.5837875,23.2913664 C23.0235415,22.7688298 23.8280975,22.7688298 24.2678515,23.2913664 L31,31.2908241 L37.7321485,23.2913664 C38.1719025,22.7688298 38.9764585,22.7688298 39.4162125,23.2913664 L45,29.9262871 L45,33.344639 L38.5741805,25.7091759 L31.842032,33.7086336 C31.402278,34.2311702 30.597722,34.2311702 30.157968,33.7086336 L23.4258195,25.7091759 L16.842032,33.532344 C16.402278,34.0548805 15.597722,34.0548805 15.157968,33.532344 L8.57418052,25.7091759 L2,33.5209286 Z M2,42.5209286 L2,39.1025767 L7.7321485,32.2913664 C8.1719025,31.7688298 8.97645854,31.7688298 9.41621255,32.2913664 L16,40.1145344 L22.5837875,32.2913664 C23.0235415,31.7688298 23.8280975,31.7688298 24.2678515,32.2913664 L31,40.2908241 L37.7321485,32.2913664 C38.1719025,31.7688298 38.9764585,31.7688298 39.4162125,32.2913664 L45,38.9262871 L45,42.344639 L38.5741805,34.7091759 L31.842032,42.7086336 C31.402278,43.2311702 30.597722,43.2311702 30.157968,42.7086336 L23.4258195,34.7091759 L16.842032,42.532344 C16.402278,43.0548805 15.597722,43.0548805 15.157968,42.532344 L8.57418052,34.7091759 L2,42.5209286 Z" id="Combined-Shape" fill="#000000" fill-rule="nonzero"></path>
    </g>
</svg>