<?xml version="1.0" encoding="utf-8"?>
<!-- Generator: Adobe Illustrator 18.0.0, SVG Export Plug-In . SVG Version: 6.00 Build 0)  -->
<!DOCTYPE svg PUBLIC "-//W3C//DTD SVG 1.1//EN" "http://www.w3.org/Graphics/SVG/1.1/DTD/svg11.dtd">
<svg version="1.1" id="Layer_1" xmlns="http://www.w3.org/2000/svg" xmlns:xlink="http://www.w3.org/1999/xlink" x="0px" y="0px"
	 viewBox="0 0 56.7 56.7" enable-background="new 0 0 56.7 56.7" xml:space="preserve">
<g>
	<path d="M34.5,21.1v2.9l0.5,0v0c0,0,0.5,0.1,0.8,0.3c0.2,0.1,0.4,0.2,0.5,0.4c0.1,0.2,0.2,0.4,0.2,0.8c0,0.3-0.1,0.6-0.2,0.8
		c-0.2,0.3-0.6,0.6-0.9,0.7c-0.2,0.1-0.3,0.1-0.4,0.2l-0.1,0l0,0l0,0c-0.3,0-0.5,0.2-0.5,0.5c0,0.1,0,0.2,0.1,0.3
		c0.1,0.1,0.2,0.2,0.2,0.2c0.1,0,0.1,0,0.1,0l0.1,0c0.1,0,0.1,0,0.1,0c0.1,0,0.3-0.1,0.6-0.2c0.4-0.1,0.8-0.4,1.3-0.8
		c0.4-0.4,0.7-1,0.7-1.8c0-0.5-0.2-1-0.4-1.4c-0.4-0.5-0.9-0.8-1.3-0.9c-0.1,0-0.2-0.1-0.3-0.1v-1h1.7c0.3,0,0.5-0.2,0.5-0.5
		c0-0.3-0.2-0.5-0.5-0.5H34.5z M34.8,27.3L34.8,27.3L34.8,27.3L34.8,27.3z"/>
	<path d="M49.7,38.7L41,30.3c-0.3-0.3-0.6-0.5-1-0.5c1.1-1.6,1.7-3.5,1.7-5.5c0-5.4-4.4-9.8-9.8-9.8c-5.1,0-9.3,3.9-9.7,8.9H12
		c-0.1,0-0.2,0-0.2,0.1L6.7,26c-0.2,0.1-0.3,0.3-0.3,0.6C6.4,26.8,6.7,27,6.9,27h15.7c1.2,4.1,4.9,7,9.4,7c2.1,0,4.1-0.7,5.7-1.8
		c0.1,0.4,0.3,0.7,0.6,1l8.7,8.4c0.8,0.8,2.1,0.8,2.9-0.1C50.5,40.7,50.5,39.4,49.7,38.7z M9.1,26l3.1-1.5h10c0,0.5,0.1,1,0.1,1.5
		H9.1z M37.4,29.7C36,31.1,34,32,31.9,32c-2.1,0-4.1-0.9-5.5-2.3c-0.4-0.4-0.8-0.9-1.1-1.4h6.8c0.3,0,0.5-0.2,0.5-0.5
		c0-0.3-0.2-0.5-0.5-0.5h-7.4c0-0.1-0.1-0.2-0.1-0.3h7.5c0.3,0,0.5-0.2,0.5-0.5c0-0.3-0.2-0.5-0.5-0.5h-7.8c0-0.1,0-0.2-0.1-0.3h7.8
		c0.3,0,0.5-0.2,0.5-0.5c0-0.3-0.2-0.5-0.5-0.5h-8c0-0.1,0-0.2,0-0.3h8c0.3,0,0.5-0.2,0.5-0.5c0-0.3-0.2-0.5-0.5-0.5h-7.9
		c0-0.2,0.1-0.5,0.1-0.7c3.2-0.1,4.4-0.2,7.9-0.6c0.3,0,0.5-0.3,0.4-0.6s-0.3-0.5-0.6-0.4c-3.3,0.4-4.6,0.4-7.5,0.6
		c0.4-1.1,1-2.1,1.8-2.9c1.4-1.4,3.3-2.3,5.5-2.3c2.1,0,4.1,0.9,5.5,2.3c1.4,1.4,2.3,3.3,2.3,5.5C39.6,26.4,38.8,28.3,37.4,29.7z"/>
</g>
</svg>
