<?xml version="1.0" encoding="utf-8"?>
<!-- Generator: Adobe Illustrator 18.0.0, SVG Export Plug-In . SVG Version: 6.00 Build 0)  -->
<!DOCTYPE svg PUBLIC "-//W3C//DTD SVG 1.1//EN" "http://www.w3.org/Graphics/SVG/1.1/DTD/svg11.dtd">
<svg version="1.1" id="Layer_1" xmlns="http://www.w3.org/2000/svg" xmlns:xlink="http://www.w3.org/1999/xlink" x="0px" y="0px"
	 viewBox="0 0 56.7 56.7" enable-background="new 0 0 56.7 56.7" xml:space="preserve">
<g>
	<g>
		<path d="M35.8,24.4h-4.3v4.4l0.5,0c0.1,0,0.8,0.1,1.5,0.5c0.3,0.2,0.7,0.5,0.9,0.8c0.2,0.3,0.4,0.8,0.4,1.4c0,0.6-0.2,1.1-0.4,1.5
			c-0.4,0.6-1,1-1.6,1.3c-0.3,0.1-0.6,0.2-0.8,0.3c-0.1,0-0.2,0-0.2,0.1l0,0c0,0,0,0,0,0c0,0,0,0,0,0h0v0c-0.3,0-0.6,0.3-0.6,0.6
			c0,0.1,0,0.2,0.1,0.3c0.1,0.2,0.2,0.2,0.3,0.2c0.1,0,0.1,0,0.2,0l0.1,0c0.1,0,0.1,0,0.2,0c0.2,0,0.5-0.1,0.9-0.3
			c0.6-0.2,1.4-0.6,2-1.3c0.6-0.6,1.2-1.6,1.2-2.8c0-0.9-0.2-1.6-0.6-2.1c-0.6-0.8-1.4-1.2-2-1.5c-0.2-0.1-0.5-0.1-0.6-0.2v-2.2h3.1
			c0.3,0,0.6-0.3,0.6-0.6C36.4,24.6,36.2,24.4,35.8,24.4z M32.2,34.9L32.2,34.9L32.2,34.9L32.2,34.9z M31.8,34.6L31.8,34.6
			L31.8,34.6L31.8,34.6z"/>
		<path d="M28.1,29.5h-1.6v-1.5c0-0.3-0.3-0.6-0.6-0.6c-0.3,0-0.6,0.3-0.6,0.6v1.5h-1.6c-0.3,0-0.6,0.3-0.6,0.6
			c0,0.3,0.3,0.6,0.6,0.6h1.6v1.6c0,0.3,0.3,0.6,0.6,0.6c0.3,0,0.6-0.3,0.6-0.6v-1.6h1.6c0.3,0,0.6-0.3,0.6-0.6
			C28.7,29.8,28.4,29.5,28.1,29.5z"/>
		<path d="M41.8,24.9c-0.4-0.3-0.8-0.6-1.4-0.6c-0.5,0-1,0.2-1.4,0.6c-0.6,0.5-1,1.2-1.3,2.1c-0.3,0.9-0.5,1.9-0.5,3.1
			c0,1.5,0.3,2.8,0.8,3.9c0.3,0.5,0.6,1,0.9,1.3c0.4,0.3,0.8,0.6,1.4,0.6c0.5,0,1-0.2,1.4-0.6c0.6-0.5,1-1.2,1.3-2.1
			c0.3-0.9,0.5-1.9,0.5-3.1c0-1.5-0.3-2.8-0.8-3.9C42.5,25.7,42.2,25.2,41.8,24.9z M41.7,33.5c-0.2,0.4-0.4,0.7-0.6,0.9
			c-0.2,0.2-0.4,0.3-0.6,0.3c-0.2,0-0.4-0.1-0.6-0.3c-0.3-0.3-0.7-0.8-0.9-1.6c-0.2-0.7-0.4-1.7-0.4-2.7c0-1.3,0.3-2.5,0.7-3.4
			c0.2-0.4,0.4-0.7,0.6-0.9c0.2-0.2,0.4-0.3,0.6-0.3c0.2,0,0.4,0.1,0.6,0.3c0.3,0.3,0.7,0.8,0.9,1.6c0.2,0.7,0.4,1.7,0.4,2.7
			C42.4,31.4,42.1,32.6,41.7,33.5z"/>
		<path d="M51.5,24.5c-0.3-0.2-0.6-0.1-0.8,0.2l-6.6,10.3c-0.2,0.3-0.1,0.6,0.2,0.8c0.3,0.2,0.6,0.1,0.8-0.2l6.6-10.3
			C51.8,25,51.8,24.6,51.5,24.5z"/>
		<path d="M46.6,28.4c1.1,0,2-0.9,2-2c0-1.1-0.9-2-2-2c-1.1,0-2,0.9-2,2S45.5,28.4,46.6,28.4z M46.6,25.6c0.4,0,0.8,0.4,0.8,0.8
			c0,0.4-0.4,0.8-0.8,0.8c-0.4,0-0.8-0.4-0.8-0.8C45.7,25.9,46.1,25.6,46.6,25.6z"/>
		<path d="M49.8,31.4c-1.2,0-2.2,1-2.2,2.2c0,1.2,1,2.2,2.2,2.2c1.2,0,2.2-1,2.2-2.2C52,32.3,51,31.4,49.8,31.4z M49.8,34.6
			c-0.6,0-1-0.5-1-1c0-0.6,0.5-1,1-1c0.6,0,1,0.5,1,1C50.8,34.1,50.4,34.6,49.8,34.6z"/>
	</g>
	<path d="M22.4,20.9l0.3-10.2h0.8c0.3,0,0.6-0.3,0.6-0.6c0-0.3-0.3-0.6-0.6-0.6h-1.3c0,0,0,0,0,0c0,0,0,0,0,0H7c0,0,0,0,0,0
		c0,0,0,0,0,0H5.5C5.2,9.6,5,9.8,5,10.2c0,0.3,0.3,0.6,0.6,0.6h0.9l0,10.2c0,0.2,0.1,0.3,0.2,0.4l6.8,7.2l-7,7.1
		c-0.1,0.1-0.2,0.3-0.2,0.4l-0.3,10H5.3c-0.3,0-0.6,0.3-0.6,0.6c0,0.3,0.3,0.6,0.6,0.6h1.3l0,0l0,0h16.5c0.3,0,0.6-0.3,0.6-0.6
		c0-0.3-0.3-0.6-0.6-0.6h-0.8l-0.1-9.6c0-0.2-0.1-0.3-0.2-0.4l-7-7.4l7.1-7.2C22.4,21.2,22.4,21.1,22.4,20.9z M21.5,10.8l-0.1,5.7
		H7.7l0-5.7H21.5z M21.1,44.2H7.3l0.2-8l6.8-6.9l6.8,7.2L21.1,44.2z"/>
</g>
</svg>
