<?xml version="1.0" encoding="UTF-8"?>
<svg width="60px" height="60px" viewBox="0 0 60 60" version="1.1" xmlns="http://www.w3.org/2000/svg" xmlns:xlink="http://www.w3.org/1999/xlink">
    <!-- Generator: Sketch 52.1 (67048) - http://www.bohemiancoding.com/sketch -->
    <title>ico/coin/black</title>
    <desc>Created with Sketch.</desc>
    <g id="ico/coin/black" stroke="none" stroke-width="1" fill="none" fill-rule="evenodd">
        <g id="cash" transform="translate(0.000000, 4.000000)" fill="#000000" fill-rule="nonzero">
            <path d="M22.4210788,34.8918672 C18.3505394,33.6595021 13.5829046,35.9375104 13.1098755,36.186473 L2.26755187,42.7217427 C2.01858921,42.8586722 1.75717842,42.933361 1.49576763,42.933361 C0.985394191,42.933361 0.499917012,42.6719502 0.213609959,42.2113693 C-0.209626556,41.5018257 0.014439834,40.5806639 0.723983402,40.1574274 L11.6160996,33.5723651 C11.6409959,33.5474689 11.6783402,33.5350207 11.7032365,33.5225726 C11.9521992,33.3980913 17.8775104,30.3856432 23.28,32.0163485 L34.2219087,35.3275519 C34.806971,35.5018257 35.2177593,36.0121992 35.28,36.6221577 C35.466722,38.5765145 34.4584232,41.6760996 30.9356017,42.2362656 C27.3878838,42.8088797 21.9231535,42.4727801 21.686639,42.460332 C20.8650622,42.4105394 20.2426556,41.7009959 20.2924481,40.8794191 C20.3422407,40.0578423 21.0517842,39.4354357 21.873361,39.4852282 C21.9231535,39.4852282 27.2509544,39.8088797 30.4625726,39.2985062 C31.3339419,39.1615768 31.8692116,38.7632365 32.1306224,38.0536929 C32.1555187,37.9914523 32.1804149,37.9167635 32.1928631,37.8545228 L22.4210788,34.8918672 Z M59.7156846,32.3897925 C60.0766805,33.0495436 59.8899585,33.8586722 59.3048963,34.306805 L37.6451452,50.1657261 C35.5663071,51.6843983 32.9148548,52.3317012 30.3754357,51.9209129 L12.9231535,49.1325311 L8.86506224,52.5184232 C8.57875519,52.7549378 8.2426556,52.866971 7.90655602,52.866971 C7.4833195,52.866971 7.06008299,52.680249 6.7613278,52.3317012 C6.22605809,51.6968465 6.31319502,50.7507884 6.94804979,50.2279668 L11.5289627,46.40639 C11.8650622,46.1325311 12.3007469,46.0204979 12.7239834,46.0827386 L30.8360166,48.9707054 C32.5912033,49.2445643 34.4210788,48.8088797 35.8650622,47.7507884 L56.1679668,32.8752697 C56.1430705,32.8628216 56.1306224,32.8503734 56.1057261,32.8379253 C55.3214938,32.3524481 54.4127801,32.3524481 53.3297925,32.8379253 C49.533112,34.5184232 41.4791701,38.4022407 41.3920332,38.4395851 C40.6575934,38.8005809 39.7613278,38.4893776 39.400332,37.7424896 C39.0393361,36.9956017 39.3505394,36.1117842 40.0974274,35.7507884 C40.1845643,35.713444 48.2882988,31.8171784 52.1223237,30.1117842 C56.1804149,28.3192531 58.8567635,30.8213278 59.7156846,32.3897925 Z M32.0434855,30.6719502 C29.7156846,30.6719502 27.5372614,29.7632365 25.8816598,28.120083 C22.4833195,24.7217427 22.4833195,19.2072199 25.8816598,15.8088797 C27.5372614,14.1657261 29.7156846,13.2570124 32.0434855,13.2570124 C34.3712863,13.2570124 36.5621577,14.1657261 38.2053112,15.8088797 C41.6036515,19.2072199 41.6036515,24.7217427 38.2053112,28.120083 C36.5497095,29.7632365 34.3712863,30.6719502 32.0434855,30.6719502 Z M27.9978423,17.9250622 C25.7696266,20.153278 25.7696266,23.7881328 27.9978423,26.0163485 C29.0808299,27.0993361 30.5123651,27.6968465 32.0434855,27.6968465 C33.5746058,27.6968465 35.0061411,27.0993361 36.0891286,26.0163485 C38.3173444,23.7881328 38.3173444,20.153278 36.0891286,17.9250622 C35.0061411,16.8420747 33.5746058,16.2445643 32.0434855,16.2445643 C30.5123651,16.2445643 29.0808299,16.8420747 27.9978423,17.9250622 Z M42.2634025,13.6553527 C40.4584232,13.6553527 38.7405809,12.9582573 37.4584232,11.6636515 C34.806971,9.01219917 34.806971,4.70514523 37.4584232,2.05369295 C38.7405809,0.77153527 40.4459751,0.0619917012 42.2634025,0.0619917012 C44.0808299,0.0619917012 45.7862241,0.77153527 47.0683817,2.05369295 C49.719834,4.70514523 49.719834,9.01219917 47.0683817,11.6636515 C45.7862241,12.9458091 44.0808299,13.6553527 42.2634025,13.6553527 Z M39.5746058,4.16987552 C38.093278,5.65120332 38.093278,8.06614108 39.5746058,9.55991701 C40.2965975,10.2819087 41.2551037,10.680249 42.2758506,10.680249 C43.2965975,10.680249 44.2551037,10.2819087 44.9770954,9.55991701 C46.4584232,8.07858921 46.4584232,5.65120332 44.9770954,4.16987552 C44.2551037,3.44788382 43.2965975,3.04954357 42.2758506,3.04954357 C41.2551037,3.04954357 40.2965975,3.44788382 39.5746058,4.16987552 Z" id="Combined-Shape"></path>
        </g>
    </g>
</svg>