<?xml version="1.0" encoding="UTF-8"?>
<svg width="60px" height="60px" viewBox="0 0 60 60" version="1.1" xmlns="http://www.w3.org/2000/svg" xmlns:xlink="http://www.w3.org/1999/xlink">
    <!-- Generator: Sketch 42 (36781) - http://www.bohemiancoding.com/sketch -->
    <title>ico/search</title>
    <desc>Created with Sketch.</desc>
    <defs></defs>
    <g id="Symbols" stroke="none" stroke-width="1" fill="none" fill-rule="evenodd">
        <g id="ico/search" fill-rule="nonzero" fill="#000000">
            <g id="flaticon1485452328-svg" transform="translate(-0.387505, 0.000000)">
                <g id="Capa_1">
                    <path d="M59.4745011,56.940133 L44.8935698,42.3592018 C48.804878,37.8625277 51.172949,31.9955654 51.172949,25.5831486 C51.172949,11.4678492 39.691796,0 25.5898004,0 C11.4745011,0 0.0066518847,11.481153 0.0066518847,25.5831486 C0.0066518847,39.6851441 11.4878049,51.1662971 25.5898004,51.1662971 C32.0022173,51.1662971 37.8691796,48.7982262 42.3658537,44.886918 L56.9467849,59.4678492 C57.2926829,59.8137472 57.7583149,60 58.210643,60 C58.6629712,60 59.1286031,59.827051 59.4745011,59.4678492 C60.1662971,58.7760532 60.1662971,57.631929 59.4745011,56.940133 Z M3.58536585,25.5831486 C3.58536585,13.4501109 13.4567627,3.59201774 25.5764967,3.59201774 C37.7095344,3.59201774 47.5676275,13.4634146 47.5676275,25.5831486 C47.5676275,37.7028825 37.7095344,47.5875831 25.5764967,47.5875831 C13.4567627,47.5875831 3.58536585,37.7161863 3.58536585,25.5831486 Z" id="Shape"></path>
                </g>
            </g>
        </g>
    </g>
</svg>