<svg id="Layer_1" data-name="Layer 1" xmlns="http://www.w3.org/2000/svg" viewBox="0 0 56.69 56.69"><title>star</title><path d="M53.9,22.47a1.42,1.42,0,0,0-1.14-1l-16-2.32L29.62,4.7a1.42,1.42,0,0,0-2.54,0L19.93,19.19l-16,2.32a1.42,1.42,0,0,0-.79,2.42L14.72,35.2,12,51.12A1.42,1.42,0,0,0,14,52.62l14.3-7.52,14.3,7.52a1.42,1.42,0,0,0,2.06-1.49L42,35.2,53.54,23.93A1.42,1.42,0,0,0,53.9,22.47ZM39.46,33.69a1.42,1.42,0,0,0-.41,1.25l2.37,13.83L29,42.25a1.41,1.41,0,0,0-1.32,0L15.27,48.77l2.37-13.83a1.42,1.42,0,0,0-.41-1.25l-10-9.79,13.88-2a1.42,1.42,0,0,0,1.07-.77L28.35,8.53l6.21,12.58a1.42,1.42,0,0,0,1.07.77l13.88,2Z"/></svg>