<?xml version="1.0" encoding="UTF-8"?>
<svg width="56px" height="48px" viewBox="0 0 56 48" version="1.1" xmlns="http://www.w3.org/2000/svg" xmlns:xlink="http://www.w3.org/1999/xlink">
    <!-- Generator: Sketch 52.1 (67048) - http://www.bohemiancoding.com/sketch -->
    <title>stopwatch</title>
    <desc>Created with Sketch.</desc>
    <defs>
        <linearGradient x1="0%" y1="0%" x2="101.999998%" y2="100.999999%" id="linearGradient-1">
            <stop stop-color="#3023AE" offset="0%"></stop>
            <stop stop-color="#C86DD7" offset="100%"></stop>
        </linearGradient>
    </defs>
    <g id="detail-2018/09" stroke="none" stroke-width="1" fill="none" fill-rule="evenodd">
        <g id="xl-04-detail-f" transform="translate(-445.000000, -142.000000)" fill="url(#linearGradient-1)" fill-rule="nonzero">
            <g id="main" transform="translate(150.000000, 92.000000)">
                <g transform="translate(0.000000, 50.000000)" id="left">
                    <g>
                        <g id="image">
                            <g id="benefit">
                                <g transform="translate(295.000000, 0.000000)">
                                    <g id="stopwatch">
                                        <path d="M50.1665309,13.7346738 C53.7729345,17.373572 56,22.3497227 56,27.8304134 C56,38.95204 46.8340439,48.0001082 35.5675128,48 C30.09806,48 25.123937,45.8672558 21.4528633,42.4003967 L19.8968331,40.7578017 C19.0988689,39.8167801 18.3861816,38.8030477 17.77039,37.72829 L16.9262798,36.0858032 C16.4111106,34.9567287 15.9991945,33.7724719 15.7002867,32.5451513 L15.3717841,30.9026644 C15.2160277,29.9007258 15.1351351,28.8746585 15.1351351,27.8304134 C15.1351351,27.673847 15.1375466,27.5178216 15.1411637,27.3621207 L15.2468282,25.7195257 C15.3755109,24.5042153 15.6144617,23.3209323 15.9527196,22.178982 L16.5183096,20.536387 C17.0090357,19.2919706 17.6208813,18.10674 18.340474,16.9957351 L19.5250344,15.3532483 C19.9768487,14.7884406 20.459354,14.248519 20.9686042,13.7346738 L18.495244,10.8527478 C17.7365204,9.96842343 17.847775,8.63961048 18.7436213,7.89053695 L19.4908359,7.26567783 C19.9247837,6.90277264 20.4768917,6.7290023 21.0425913,6.774663 C21.609387,6.8209729 22.1240082,7.08238583 22.4916417,7.51064425 L25.0802025,10.5268473 C27.4488847,9.12261846 30.1276549,8.17813444 32.9894746,7.82085569 L32.9894746,5.89077138 L30.6689114,5.89077138 C29.7149715,5.89077138 28.9389294,5.12471034 28.9389294,4.18303954 L28.9389294,1.70773184 C28.9389294,0.766061043 29.7149715,0 30.6689114,0 L40.4661142,0 C41.4200541,0 42.1962058,0.766061043 42.1962058,1.70773184 L42.1962058,4.18303954 C42.1962058,5.12471034 41.4200541,5.89077138 40.4661142,5.89077138 L38.145551,5.89077138 L38.145551,7.82096389 C41.0073707,8.17813444 43.6861409,9.12272666 46.0549327,10.5269555 L48.6434935,7.51075245 C49.0112366,7.08238583 49.5257481,6.8209729 50.0925439,6.774663 C50.6591204,6.7287859 51.210461,6.90288084 51.6442992,7.26578603 L52.3915138,7.89053695 C53.2872505,8.63961048 53.3986148,9.96842343 52.6397815,10.8527478 L50.1665309,13.7346738 Z M49.8980949,8.55986655 L47.4450126,11.4179884 C47.9737735,11.7914972 48.485216,12.1902169 48.9757228,12.6114422 L51.3853993,9.80363374 C51.558255,9.60216401 51.5328254,9.29941842 51.3288403,9.1288941 L50.5816258,8.50403498 C50.4826475,8.42147784 50.3563763,8.38101077 50.228132,8.39215545 C50.0990109,8.40275912 49.9818373,8.46226951 49.8980949,8.55986655 Z M30.6689114,4.2677607 L33.8115531,4.2677607 L37.3234725,4.2677607 L40.4661142,4.2677607 C40.5134659,4.2677607 40.5520488,4.22978225 40.5520488,4.18303954 L40.5520488,1.70773184 C40.5520488,1.66109734 40.5135755,1.62301068 40.4661142,1.62301068 L30.6689114,1.62301068 C30.6216692,1.62301068 30.5830864,1.66098913 30.5830864,1.70773184 L30.5830864,4.18303954 C30.5830864,4.22967405 30.6215596,4.2677607 30.6689114,4.2677607 Z M36.5013939,5.89077138 L34.6337412,5.89077138 L34.6337412,7.68246698 C34.6739682,7.68062756 34.7136472,7.67997836 34.7537647,7.67835535 C34.8631559,7.67402732 34.9724375,7.66959109 35.0822672,7.66699427 C35.2442715,7.66309905 35.4058373,7.66093503 35.5672935,7.66093503 C35.5674032,7.66093503 35.5675128,7.66093503 35.5676224,7.66093503 C35.7291882,7.66093503 35.8908636,7.66309905 36.0529775,7.66699427 C36.163136,7.66959109 36.2727465,7.67413552 36.382357,7.67835535 C36.4221456,7.67997836 36.4614957,7.68062756 36.5013939,7.68246698 L36.5013939,5.89077138 Z M19.7497358,9.80374194 L22.1596316,12.6116586 C22.6500288,12.1906497 23.1614712,11.7917136 23.6903417,11.4182048 L21.2371499,8.55986655 C21.1534075,8.46226951 21.0362339,8.40286732 20.9071127,8.39226365 C20.893521,8.39107344 20.8798197,8.39053244 20.8663376,8.39053244 C20.7517947,8.39053244 20.6420746,8.4301339 20.553619,8.50414319 L19.8062948,9.1290023 C19.6022001,9.29963482 19.5768801,9.60227221 19.7497358,9.80374194 Z M35.5676224,46.3770975 C45.9274557,46.3770975 54.355843,38.0571119 54.355843,27.8304134 C54.355843,18.1532663 46.8085046,10.1849331 37.2194521,9.356332 C37.0953731,9.34572833 36.971294,9.33609846 36.8474342,9.32776701 C36.8266082,9.3263604 36.8057822,9.32517019 36.7849562,9.32387178 C36.6655904,9.31618953 36.5464438,9.30948109 36.4277357,9.30407105 C36.3827954,9.30201524 36.3376359,9.30071683 36.292586,9.29898562 C36.1967865,9.29530679 36.1009869,9.29162797 36.0057354,9.28935575 C35.8599535,9.28600153 35.714062,9.28383752 35.5675128,9.28383752 C35.4209636,9.28383752 35.2749624,9.28600153 35.1292901,9.28935575 C35.0341482,9.29162797 34.9383487,9.29530679 34.8425491,9.29898562 C34.7974992,9.30071683 34.7523397,9.30201524 34.7072898,9.30407105 C34.5886913,9.30948109 34.4697639,9.31608133 34.3505077,9.32376358 C34.3295721,9.32517019 34.3085269,9.3263604 34.2874817,9.32776701 C34.1639507,9.33609846 34.0403101,9.34572833 33.9164503,9.356332 C24.3270689,10.1846084 16.7794018,18.1531581 16.7794018,27.8305216 C16.7794018,38.0571119 25.2076794,46.3770975 35.5676224,46.3770975 Z M48.9356718,16.7895653 C51.5390564,19.8719892 52.9728642,23.786127 52.972973,27.8108513 C52.972973,37.2889871 45.1861979,45 35.6150464,45 C31.5621959,45 27.6183,43.587357 24.5097227,41.0222238 C24.1636124,40.7366587 24.1169642,40.2274439 24.4052263,39.8848088 C24.6937059,39.5421737 25.2079239,39.4958716 25.5538167,39.7813291 C28.369891,42.1050456 31.9429933,43.3848125 35.6150464,43.3848125 C44.2868331,43.3848125 51.3419159,36.3983726 51.3419159,27.8108513 C51.3419159,24.1642962 50.0430508,20.6182058 47.6846511,17.825762 C47.3956278,17.4837729 47.4414061,16.9743428 47.7869727,16.6882392 C48.1322131,16.4019203 48.6466485,16.4473609 48.9356718,16.7895653 Z M45.8352411,13.9042915 C46.1952489,14.1708939 46.2693554,14.6765563 46.0003803,15.0336401 C45.7316222,15.3905086 45.2215569,15.4640986 44.8614405,15.1973886 C42.1366435,13.1801184 38.8934265,12.1138162 35.4825748,12.1138162 C26.8294753,12.1138162 19.789684,19.0943244 19.789684,27.6744472 C19.789684,31.0506583 20.8615698,34.2619374 22.8895705,36.9610988 C23.1581116,37.3183977 23.0835711,37.8239525 22.7231293,38.0902322 C22.5771948,38.1980351 22.4066306,38.25 22.2375853,38.25 C21.9892255,38.25 21.7441207,38.137786 21.584298,37.925085 C19.345479,34.9452272 18.1621622,31.4006413 18.1621622,27.6744472 C18.1621622,18.2043586 25.9321683,10.5 35.4825748,10.5 C39.2470328,10.5 42.8268213,11.6772251 45.8352411,13.9042915 Z M16.5649381,15.75 C17.0292122,15.75 17.4054054,16.0857 17.4054054,16.5 C17.4054054,16.9143 17.0292122,17.25 16.5649381,17.25 L10.6783051,17.25 C10.214031,17.25 9.83783784,16.9143 9.83783784,16.5 C9.83783784,16.0857 10.214031,15.75 10.6783051,15.75 L16.5649381,15.75 Z M13.538947,25.5 C14.0026489,25.5 14.3783784,25.8357 14.3783784,26.25 C14.3783784,26.6643 14.0026489,27 13.538947,27 L10.6772693,27 C10.2135673,27 9.83783784,26.6643 9.83783784,26.25 C9.83783784,25.8357 10.2135673,25.5 10.6772693,25.5 L13.538947,25.5 Z M15.1095149,36 C15.5416999,36 15.8918919,36.3357 15.8918919,36.75 C15.8918919,37.1643 15.5415956,37.5 15.1095149,37.5 L12.8904851,37.5 C12.4583001,37.5 12.1081081,37.1643 12.1081081,36.75 C12.1081081,36.3357 12.4583001,36 12.8904851,36 L15.1095149,36 Z M14.3221924,20.25 C14.771262,20.25 15.1351351,20.5857 15.1351351,21 C15.1351351,21.4143 14.771262,21.75 14.3221924,21.75 L5.35348325,21.75 C4.9044137,21.75 4.54054054,21.4143 4.54054054,21 C4.54054054,20.5857 4.9044137,20.25 5.35348325,20.25 L14.3221924,20.25 Z M13.5560049,30.75 C14.010284,30.75 14.3783784,31.0857 14.3783784,31.5 C14.3783784,31.9143 14.0101743,32.25 13.5560049,32.25 L0.822373506,32.25 C0.368094381,32.25 0,31.9143 0,31.5 C0,31.0857 0.368094381,30.75 0.822373506,30.75 L13.5560049,30.75 Z M18.0785844,40.5 C18.5427852,40.5 18.9189189,40.8357 18.9189189,41.25 C18.9189189,41.6643 18.5427852,42 18.0785844,42 L8.40790213,42 C7.94370132,42 7.56756757,41.6643 7.56756757,41.25 C7.56756757,40.8357 7.94370132,40.5 8.40790213,40.5 L18.0785844,40.5 Z M29.1015625,29.1660156 L30.1650391,29.1660156 L29.8046875,31.2314453 L28.75,31.2314453 L28.2666016,34 L25.8320312,34 L26.3242188,31.2314453 L22.2197266,31.2314453 L22.3955078,29.5087891 L27.9853516,21.203125 L30.4814453,21.203125 L29.1015625,29.1660156 Z M24.8652344,29.1660156 L26.6757812,29.1660156 L27.4931641,24.8505859 L27.4052734,24.9824219 L24.8652344,29.1660156 Z M39.4638672,24.5341797 C39.3759761,25.770514 38.7314513,26.7431605 37.5302734,27.4521484 C37.9697288,27.8212909 38.2773429,28.266599 38.453125,28.7880859 C38.6289071,29.3095729 38.6933596,29.8544893 38.6464844,30.4228516 C38.5644527,31.5478572 38.1543006,32.4633754 37.4160156,33.1694336 C36.6777307,33.8754918 35.7548883,34.2109377 34.6474609,34.1757812 C33.6220652,34.1523436 32.8222685,33.8051791 32.2480469,33.1342773 C31.6738253,32.4633756 31.427734,31.6064505 31.5097656,30.5634766 C31.6210943,29.1396413 32.3564385,28.0732457 33.7158203,27.3642578 C33.000973,26.6904263 32.6816402,25.7968806 32.7578125,24.6835938 C32.8046877,23.9746058 32.9980452,23.3330107 33.3378906,22.7587891 C33.6777361,22.1845674 34.124509,21.7465835 34.6782227,21.4448242 C35.2319364,21.1430649 35.8515591,21.0009765 36.5371094,21.0185547 C37.5097705,21.0419923 38.2626926,21.3818327 38.7958984,22.0380859 C39.3291042,22.6943392 39.5517583,23.5263621 39.4638672,24.5341797 Z M36.2734375,29.6845703 C36.2265623,28.8818319 35.9335964,28.4746094 35.3945312,28.4628906 C34.9492165,28.4511718 34.5903334,28.6840796 34.3178711,29.1616211 C34.0454088,29.6391625 33.9267576,30.2236294 33.9619141,30.9150391 C33.9736329,31.2724627 34.0571281,31.5624989 34.2124023,31.7851562 C34.3676766,32.0078136 34.5859361,32.1220703 34.8671875,32.1279297 C35.3125022,32.1396485 35.665526,31.9082055 35.9262695,31.4335938 C36.187013,30.958982 36.3027345,30.37598 36.2734375,29.6845703 Z M37.046875,24.2001953 C37.0234374,23.4619104 36.7802758,23.0869141 36.3173828,23.0751953 C35.9423809,23.0751953 35.6523448,23.2744121 35.4472656,23.6728516 C35.2421865,24.0712911 35.1396484,24.6044888 35.1396484,25.2724609 C35.1396484,25.6181658 35.2011713,25.8964833 35.3242188,26.1074219 C35.4472662,26.3183604 35.6259754,26.4267578 35.8603516,26.4326172 C36.2470722,26.4326172 36.5429677,26.2216818 36.7480469,25.7998047 C36.953126,25.3779276 37.0527344,24.8447298 37.046875,24.2001953 Z M43.5771484,25.3339844 C44.1806671,24.6367153 44.8456995,24.2939453 45.5722656,24.3056641 C46.2695347,24.3173829 46.8027325,24.5751928 47.171875,25.0791016 C47.5410175,25.5830103 47.7255859,26.2831986 47.7255859,27.1796875 L47.6816406,28.0146484 L46.6796875,34 L44.2451172,34 L45.2382812,27.9882812 L45.2822266,27.4697266 C45.3056642,26.7548792 45.0507839,26.3974609 44.5175781,26.3974609 C44.1308574,26.3857421 43.7558612,26.5908182 43.3925781,27.0126953 L42.1708984,34 L39.7363281,34 L42.0830078,20.5 L44.5087891,20.5 L43.5771484,25.3339844 Z" id="Combined-Shape-Copy"></path>
                                    </g>
                                </g>
                            </g>
                        </g>
                    </g>
                </g>
            </g>
        </g>
    </g>
</svg>