<?xml version="1.0" encoding="UTF-8"?>
<svg width="151px" height="86px" viewBox="0 0 151 86" version="1.1" xmlns="http://www.w3.org/2000/svg" xmlns:xlink="http://www.w3.org/1999/xlink">
    <!-- Generator: Sketch 42 (36781) - http://www.bohemiancoding.com/sketch -->
    <title>Fill 94</title>
    <desc>Created with Sketch.</desc>
    <defs></defs>
    <g id="Symbols" stroke="none" stroke-width="1" fill="none" fill-rule="evenodd">
        <g id="slider/order" transform="translate(-46.000000, -233.000000)" fill="#0089B0">
            <g id="order">
                <g id="price" transform="translate(46.000000, 228.000000)">
                    <path d="M106.656649,79.9519592 C107.036676,78.612795 104.738006,79.891404 105.384545,79.9519592 C105.722621,79.686906 106.317339,79.686906 106.656649,79.9519592 Z M103.858268,8.94548173 C110.248399,9.83991239 115.6206,11.5622622 120.644854,12.6294242 C116.649634,9.99278955 109.241574,8.70524619 103.858268,8.94548173 Z M124.459932,72.1760709 C124.194653,72.1850053 124.25758,72.4401315 124.712872,72.3805689 C124.492012,71.5357737 123.602403,71.8435135 123.69741,71.1535808 C123.219908,71.5447081 123.66533,71.6638332 123.69741,72.1760709 C124.131726,72.2525095 124.352586,71.8683312 124.459932,72.1760709 Z M50.680384,88.1368436 C50.553297,88.1368436 50.4249761,87.9502143 50.7013595,87.9323455 C60.1329412,88.7344543 68.3664505,86.8324242 76.1347968,86.5008594 C76.4531312,85.8943143 79.9511079,85.3999453 79.6957001,85.8863726 C81.4551762,84.9482628 85.0481598,84.129278 86.8175067,84.4529011 C88.1858511,82.9876628 93.2298472,82.9102315 93.9393133,82.2024302 C94.4686368,82.2629854 94.0022399,83.1067879 94.7018353,83.0214149 C95.7407405,81.5293736 97.403976,80.8642586 99.5336084,81.3844381 C99.2276126,80.0710843 101.791562,79.8328342 102.077816,80.770944 C102.257959,80.2170125 101.568234,80.3609553 101.568234,79.9519592 C102.607139,79.7385268 102.999505,79.4665246 104.112441,79.7474612 C103.66702,78.5701085 106.921928,79.5260871 107.672111,78.3149824 C107.111941,78.2216677 106.296363,78.9453525 106.147067,78.5194804 C108.966424,77.5138663 111.826498,76.5410117 114.539744,75.4500247 C114.264594,75.9106416 113.289849,75.8083925 113.0147,76.2690094 C114.476817,76.243199 114.380576,75.5949602 114.795151,75.2455266 C115.102381,74.9894078 116.882833,74.3153585 116.882833,74.2309782 C117.07408,74.2647303 117.243118,74.681668 117.338125,74.6320326 C117.549114,74.5208492 117.571323,73.8130478 117.846473,73.6075571 C118.704002,72.9692453 122.255034,71.4007653 122.424072,72.1760709 C122.169898,70.7177816 125.349541,70.5043492 126.240383,69.3111132 C126.949849,69.618853 125.699955,70.2234126 126.747497,70.1291053 C127.447093,69.5841082 126.452606,69.6863572 126.494557,69.1056225 C127.289159,68.9696214 127.532229,69.1324256 127.766661,68.9021172 C128.910444,67.170833 133.075936,65.8406031 134.378886,63.5821905 C134.983474,64.0070699 135.841003,63.3935759 136.413511,63.1722018 L135.395582,63.1722018 C140.101502,58.9174517 143.757412,54.6458256 146.332466,48.43941 C146.322595,48.6597914 146.449682,48.9585967 146.587873,48.6429153 C146.459553,48.3451027 146.216483,48.1316703 146.078292,47.8249232 C146.481762,47.8080472 146.27941,47.3047438 146.842047,47.4159272 C146.2572,46.0092588 147.212204,44.7217154 147.350395,43.5274867 C148.579314,33.0742627 140.028704,24.692822 132.598434,20.6088178 C123.30381,15.5013309 108.456842,11.3577642 95.4643572,10.3769679 C93.8862576,10.2578428 89.5208813,10.0533448 89.6158881,10.3769679 C85.8427619,9.56691746 82.515057,10.6420211 79.9511079,11.1949599 C63.7148201,14.6922732 49.1750818,20.7964398 37.475676,27.5657213 C37.9099927,27.6510943 37.4226202,27.8307746 37.475676,28.1802081 C35.6853535,28.3430124 34.9006222,30.2946779 33.4064247,30.021683 C20.7100647,39.7422879 6.03336858,52.2841713 3.90250232,66.6506536 C3.4151299,69.9077312 7.15617593,75.0747807 9.49926512,77.0870015 C16.9369384,83.5078423 28.4685401,86.577298 41.0365793,87.5233495 C44.0990055,87.7526652 47.7869958,88.7503376 50.680384,88.1368436 Z M35.4509212,16.5079376 C37.5188609,15.732632 39.9878032,14.4182855 42.3074492,13.6509216 C44.0237404,13.080114 45.7844504,13.2588016 47.3946302,12.2184428 C48.3385286,12.6363732 48.4014552,12.6194971 49.4292558,12.4239335 C49.3663292,12.1688073 48.9209078,12.2184428 48.9209078,12.4239335 C48.0522745,12.1846907 50.5742725,11.2217631 50.1930115,12.0139447 C51.3688746,11.1105797 55.7564603,10.2578428 56.2968884,10.7869566 C56.9853791,10.0870969 57.2617624,10.8633952 57.3135843,9.96797183 C59.3272344,9.76347381 61.0225501,9.47360283 62.4007653,9.76347381 C62.3588143,9.52522369 61.9343684,9.59272789 61.6370096,9.55897579 C68.9500636,7.45344035 74.8639269,8.38162311 82.4928476,7.30751215 C83.5959133,7.15463499 85.9908244,6.2671533 86.8175067,6.89851611 C99.5237376,4.27280125 117.709515,4.93692346 124.459932,12.4239335 C124.352586,13.1734287 123.940479,13.5238549 123.951584,13.8564123 C126.049136,14.8451503 129.811157,15.535083 130.310868,17.1303661 C130.531728,16.9685545 130.882143,16.9079993 131.32633,16.925868 C133.117887,18.5032824 136.730612,19.5505902 137.177267,21.0188066 C145.473703,25.6051214 151.831754,35.8022265 150.911299,45.1644635 C150.062407,53.7851471 143.640196,60.853234 137.685615,65.4236654 C129.132538,73.6075571 114.127636,78.9969733 102.077816,83.0214149 C100.519458,83.5415944 99.3435949,84.1888405 97.7543906,84.0448977 C96.5452135,85.1865129 94.2255675,84.9482628 94.1934873,85.2718859 C93.5148675,85.6898163 89.9440933,85.3403828 90.6313502,86.0908707 C89.1161772,85.8426934 88.1858511,87.1659743 87.5812625,86.5008594 C87.306113,86.9604836 86.891538,87.3099171 86.0537509,87.3188515 C86.2462322,87.1312295 86.5213817,87.0111117 86.8175067,86.9088627 C86.9445937,86.4581729 84.4016201,87.1481056 85.8008108,87.1143535 C82.5471372,87.4469109 80.1522262,88.9210835 76.8985525,88.5468323 C76.9738177,88.8535793 76.1779817,89.1861368 74.355579,89.3648244 C72.1284721,89.5871912 68.5367224,89.5445047 67.2337723,89.7738204 C68.0283745,89.6378193 64.8388613,90.8399897 66.2158426,89.7738204 C66.0036197,89.3568827 65.3262337,90.2681894 64.9449727,90.3883072 C53.0740612,90.5660021 38.2912536,90.8826762 27.8108958,88.1368436 C21.4627158,86.4740563 15.6130128,83.7212747 10.770135,81.1789473 C7.93967337,79.6958403 3.25596271,75.1264016 1.86787669,72.1760709 C1.89008607,72.2187574 2.32440276,72.1423188 2.37745849,72.1760709 C1.30647302,71.8435135 0.288543278,69.0381183 0.087425038,67.4696383 C-0.908295327,59.5319385 6.84894623,50.1945192 10.770135,44.7554675 C11.0132043,44.7644019 10.9712532,45.002652 11.024309,45.1644635 C11.1834761,44.6790289 11.193347,44.0982943 11.7868309,43.5274867 C12.3062835,43.1174979 12.285308,43.6208013 12.8047606,43.7329774 C12.9639278,42.4613174 13.5142268,41.6433253 14.8393862,41.4815138 C14.7011946,41.0208969 14.4470206,41.7286983 14.0768643,41.2770158 C15.5599571,40.270409 16.6309426,37.900813 18.4002896,37.7975713 C18.2620979,37.6367525 18.1350109,37.4650138 18.1448817,37.1840772 C20.0117032,36.7055916 20.1276855,34.8214302 22.2153668,34.5236176 C25.7540608,30.3790582 28.8386964,29.731812 32.388495,26.5432312 C32.6327981,26.5521656 32.5896132,26.7904157 32.642669,26.9522273 C40.5282313,21.0188066 50.3089938,16.6101866 60.8744876,12.8329295 C46.7801707,14.8620264 33.5754628,19.380837 24.2499925,25.9297372 C23.5923482,25.187191 24.3351284,23.3715265 24.7583404,23.0637868 C24.4930617,22.6726595 23.7515154,23.6008422 23.4862367,23.8817788 C22.9988643,22.8850992 24.5362466,22.715346 25.0125144,22.2457947 C25.1827863,22.0760415 24.8644519,21.6064902 25.0125144,21.4278026 C26.0723952,20.165077 32.8968429,16.8484368 34.6772946,16.3113813 C34.9524441,16.23395 35.4509212,16.4473824 35.4509212,16.5079376 L35.4509212,16.5079376 Z" id="Fill-94"></path>
                </g>
            </g>
        </g>
    </g>
</svg>